<svg xmlns="http://www.w3.org/2000/svg" viewBox="0 0 650 400" width="650" height="400" preserveAspectRatio="xMidYMid meet" style="width: 100%; height: 100%; transform: translate3d(0px, 0px, 0px); content-visibility: visible;"><defs><clipPath id="__lottie_element_37"><rect width="650" height="400" x="0" y="0"></rect></clipPath><mask id="__lottie_element_39" mask-type="alpha"><g transform="matrix(-0.9135454297065735,0.4067366421222687,-0.4067366421222687,-0.9135454297065735,383,155)" opacity="1" style="display: block;"><g opacity="1" transform="matrix(1,0,0,1,0,0)"><path stroke-linecap="butt" stroke-linejoin="miter" fill-opacity="0" stroke-miterlimit="4" stroke="rgb(255,0,0)" stroke-opacity="1" stroke-width="100" d=" M-137.7169952392578,52.54600143432617 C-103.60700225830078,66.2750015258789 -60.21099853515625,75 -5,75 C288,75 244.5449981689453,-142.82000732421875 244.5,-143"></path></g></g></mask></defs><g clip-path="url(#__lottie_element_37)"><g mask="url(#__lottie_element_39)" style="display: block;"><g transform="matrix(-0.9135454297065735,0.4067366421222687,-0.4067366421222687,-0.9135454297065735,697.9470825195312,134.63917541503906)" opacity="1"><g opacity="1" transform="matrix(1,0,0,1,296,109.31500244140625)"><path fill="rgb(53,85,175)" fill-opacity="1" d=" M215.27099609375,-109.31600189208984 C198.2570037841797,-23.198999404907227 108.26599884033203,42.731998443603516 0,42.731998443603516 C-108.26599884033203,42.731998443603516 -198.26699829101562,-23.198999404907227 -215.27099609375,-109.31600189208984 C-215.27099609375,-109.31600189208984 -296,-109.31600189208984 -296,-109.31600189208984 C-278.427001953125,13.633000373840332 -152.42300415039062,109.31600189208984 0,109.31600189208984 C152.4239959716797,109.31600189208984 278.375,13.633000373840332 296,-109.31600189208984 C296,-109.31600189208984 215.27099609375,-109.31600189208984 215.27099609375,-109.31600189208984z"></path></g></g></g></g></svg>