<svg aria-hidden="true" focusable="false" width="16" height="16" viewBox="0 0 16 16" fill="none" xmlns="http://www.w3.org/2000/svg"><path fill-rule="evenodd" clip-rule="evenodd" d="M13.8 8C13.8 11.2033 11.2033 13.8 8 13.8C4.79675 13.8 2.2 11.2033 2.2 8C2.2 4.79675 4.79675 2.2 8 2.2C11.2033 2.2 13.8 4.79675 13.8 8ZM15 8C15 11.866 11.866 15 8 15C4.13401 15 1 11.866 1 8C1 4.13401 4.13401 1 8 1C11.866 1 15 4.13401 15 8ZM8.6 5.66667C8.6 5.3353 8.33137 5.06667 8 5.06667C7.66863 5.06667 7.4 5.3353 7.4 5.66667V8.25926C7.4 8.47716 7.51814 8.67793 7.70861 8.78375L10.0419 10.08C10.3316 10.241 10.6969 10.1366 10.8578 9.84694C11.0188 9.55727 10.9144 9.19199 10.6247 9.03106L8.6 7.90622V5.66667Z" fill="#3555AF"></path></svg>