<svg aria-hidden="true" focusable="false" width="24" height="24" viewBox="0 0 24 24" fill="none" xmlns="http://www.w3.org/2000/svg"><path d="M12 1.88672C6.48 1.88672 2 6.36672 2 11.8867C2 17.4067 6.48 21.8867 12 21.8867C17.52 21.8867 22 17.4067 22 11.8867C22 6.36672 17.52 1.88672 12 1.88672ZM10 15.8867C9.45 15.8867 9 15.4367 9 14.8867V8.88672C9 8.33672 9.45 7.88672 10 7.88672C10.55 7.88672 11 8.33672 11 8.88672V14.8867C11 15.4367 10.55 15.8867 10 15.8867ZM14 15.8867C13.45 15.8867 13 15.4367 13 14.8867V8.88672C13 8.33672 13.45 7.88672 14 7.88672C14.55 7.88672 15 8.33672 15 8.88672V14.8867C15 15.4367 14.55 15.8867 14 15.8867Z" fill="#333333"></path></svg>