<svg aria-hidden="true" focusable="false" xmlns="http://www.w3.org/2000/svg" viewBox="0 0 24 24"><path d="M19.0682 20.6871L14.7045 16.3144C14.1364 16.7696 13.483 17.1299 12.7443 17.3954C12.0057 17.661 11.2197 17.7937 10.3864 17.7937C8.32197 17.7937 6.575 17.078 5.14545 15.6464C3.71515 14.214 3 12.4642 3 10.3969C3 8.32954 3.71515 6.57971 5.14545 5.14737C6.575 3.71579 8.32197 3 10.3864 3C12.4508 3 14.1981 3.71579 15.6284 5.14737C17.058 6.57971 17.7727 8.32954 17.7727 10.3969C17.7727 11.2314 17.6402 12.0185 17.375 12.7582C17.1098 13.4979 16.75 14.1522 16.2955 14.7212L20.6875 19.1223C20.8958 19.331 21 19.587 21 19.8905C21 20.1939 20.8864 20.4595 20.6591 20.6871C20.4508 20.8957 20.1856 21 19.8636 21C19.5417 21 19.2765 20.8957 19.0682 20.6871ZM10.3864 15.5178C11.8068 15.5178 13.0144 15.0201 14.0091 14.0247C15.003 13.0286 15.5 11.8193 15.5 10.3969C15.5 8.97439 15.003 7.7651 14.0091 6.76899C13.0144 5.77364 11.8068 5.27596 10.3864 5.27596C8.96591 5.27596 7.75833 5.77364 6.76364 6.76899C5.7697 7.7651 5.27273 8.97439 5.27273 10.3969C5.27273 11.8193 5.7697 13.0286 6.76364 14.0247C7.75833 15.0201 8.96591 15.5178 10.3864 15.5178Z" fill="#3074F0"></path></svg>