<svg id="Layer_1" data-name="Layer 1" xmlns="http://www.w3.org/2000/svg" viewBox="0 0 363.42 363.42"><defs><style>.cls-1{fill:#7accf4;}.cls-2{fill:#fff;}</style></defs><title>Untitled-1</title><path class="cls-1" d="M376.42,189.46A181.8,181.8,0,0,0,147,14.1V223.41H89.26V41.47A181.47,181.47,0,0,0,13,189.46c0,100.36,81.36,181.72,181.71,181.72a182,182,0,0,0,39.89-4.41v-143h65.3V337.65A181.48,181.48,0,0,0,376.42,189.46ZM220.66,223.41H162.94V70.93h7q30.75,0,40.76,11.13t10,44.64Z" transform="translate(-13 -7.75)"/><path class="cls-2" d="M147,223.41V14.1A180.93,180.93,0,0,0,89.26,41.47V223.41Z" transform="translate(-13 -7.75)"/><path class="cls-2" d="M169.9,70.93h-7V223.41h57.72V126.7q0-33.51-10-44.64T169.9,70.93Z" transform="translate(-13 -7.75)"/><path class="cls-2" d="M234.6,223.77v143a180.53,180.53,0,0,0,65.3-29.12V223.77Z" transform="translate(-13 -7.75)"/></svg>