<svg xmlns="http://www.w3.org/2000/svg" width="120" height="120" viewBox="0 0 120 120">
  <g id="그룹_15942" data-name="그룹 15942" transform="translate(-771 -3721)">
    <g id="그룹_15932" data-name="그룹 15932" transform="translate(13143.918 2141.099)">
      <path id="패스_3211" data-name="패스 3211" d="M472.907,36.276a11.56,11.56,0,1,1-11.56-11.56A11.56,11.56,0,0,1,472.907,36.276Z" transform="translate(-12753 1596)" fill="none" stroke="#aaa" stroke-linecap="round" stroke-linejoin="round" stroke-width="3"/>
      <path id="패스_3212" data-name="패스 3212" d="M480.082,74.144H442.613V59.736a11.9,11.9,0,0,1,11.9-11.9h13.669a11.9,11.9,0,0,1,11.9,11.9Z" transform="translate(-12753 1596)" fill="none" stroke="#aaa" stroke-linecap="round" stroke-linejoin="round" stroke-width="3"/>
      <circle id="타원_184" data-name="타원 184" cx="14.089" cy="14.089" r="14.089" transform="translate(-12344.173 1609.901)" fill="#fff" stroke="#094cb9" stroke-linecap="round" stroke-linejoin="round" stroke-width="3"/>
      <path id="패스_3213" data-name="패스 3213" d="M445.751,74.144H400.082V56.583a14.5,14.5,0,0,1,14.505-14.5h16.66a14.5,14.5,0,0,1,14.5,14.5Z" transform="translate(-12753 1596)" fill="#fff" stroke="#094cb9" stroke-linecap="round" stroke-linejoin="round" stroke-width="3"/>
      <path id="패스_3214" data-name="패스 3214" d="M434.271,50.025l1.694,3.433,3.79.55-2.742,2.673.648,3.774-3.389-1.782-3.389,1.782.648-3.774-2.742-2.673,3.79-.55Z" transform="translate(-12753.363 1595.655)" fill="#094cb9" opacity="0.2"/>
    </g>
    <rect id="사각형_1618" data-name="사각형 1618" width="120" height="120" transform="translate(771 3721)" fill="none"/>
  </g>
</svg>
