<svg id="ic_language" xmlns="http://www.w3.org/2000/svg" width="20" height="20" viewBox="0 0 20 20">
  <path id="패스_1324" data-name="패스 1324" d="M0,0H20V20H0Z" fill="none"/>
  <path id="패스_1325" data-name="패스 1325" d="M12,2A10,10,0,1,0,22,12,10,10,0,0,0,12,2ZM4,12a8.028,8.028,0,0,1,.21-1.78L8.99,15v1a2.006,2.006,0,0,0,2,2v1.93A8.012,8.012,0,0,1,4,12Zm13.89,5.4a1.993,1.993,0,0,0-1.9-1.4h-1V13a1,1,0,0,0-1-1h-6V10h2a1,1,0,0,0,1-1V7h2a2.006,2.006,0,0,0,2-2V4.59a7.978,7.978,0,0,1,2.9,12.81Z" transform="translate(-2 -2)" fill="#fff"/>
</svg>
