<svg xmlns="http://www.w3.org/2000/svg" width="40" height="40" viewBox="0 0 40 40">
  <g id="그룹_15226" data-name="그룹 15226" transform="translate(-1797.963 -932.956)">
    <g id="그룹_15225" data-name="그룹 15225" transform="translate(1798.006 933.251)">
      <path id="패스_2094" data-name="패스 2094" d="M40.786,52.931a8.05,8.05,0,0,0,5.708-9.146,7.816,7.816,0,0,0-.19-.81,7.267,7.267,0,0,0-.271-.788,4.052,4.052,0,0,0-7.545,2.74,2.6,2.6,0,0,1,.086.263c.029.09.049.18.068.269A4.052,4.052,0,0,1,31.1,48.2a8.052,8.052,0,0,0,9.688,4.732" transform="translate(-10.917 -14.059)" fill="#002876"/>
      <path id="패스_2095" data-name="패스 2095" d="M55.031,21.952a8.051,8.051,0,0,0-7.765-8.324,8.263,8.263,0,0,0-.833.014,4.05,4.05,0,0,0,.274,8.02c.093,0,.185,0,.279,0s.184.011.276.019a4.05,4.05,0,0,1,.273,8.02,8.048,8.048,0,0,0,7.495-7.748" transform="translate(-15.121 -4.784)" fill="#002876"/>
      <path id="패스_2096" data-name="패스 2096" d="M28.844.487a8.054,8.054,0,0,0-10,4.047c-.118.246-.226.5-.324.765a7.754,7.754,0,0,0-.242.795A4.051,4.051,0,0,0,26,8.312c.026-.09.055-.178.087-.265s.066-.173.1-.256A4.051,4.051,0,0,1,33.9,10.009,8.049,8.049,0,0,0,28.844.487" transform="translate(-6.404 0)" fill="#002876"/>
      <path id="패스_2097" data-name="패스 2097" d="M1.707,17.067a8.05,8.05,0,0,0,1.387,11.3c.222.171.448.332.681.478a4.052,4.052,0,0,0,4.5-6.651c-.077-.051-.151-.1-.226-.162s-.144-.117-.212-.18A4.05,4.05,0,0,1,12.326,15.2a8.052,8.052,0,0,0-10.62,1.865" transform="translate(0 -4.907)" fill="#002876"/>
      <path id="패스_2098" data-name="패스 2098" d="M8.611,49.5a8.057,8.057,0,0,0,10.465,2.6c.241-.133.478-.274.711-.43a8.042,8.042,0,0,0,.665-.5,4.052,4.052,0,0,0-4.938-6.329c-.074.056-.146.112-.223.163s-.157.1-.237.148a4.051,4.051,0,0,1-4.936-6.328A8.046,8.046,0,0,0,8.611,49.5" transform="translate(-2.541 -13.636)" fill="#002876"/>
      <path id="패스_2099" data-name="패스 2099" d="M34.423,24.992l0,0A2,2,0,0,0,32.653,23.6l-.012,0a1.6,1.6,0,0,0-1.829-1.018h-.006c-.31.064-.634.139-.965.234v0c-.016-.345-.039-.674-.077-.987v-.005A1.592,1.592,0,0,0,28.23,20.4l0-.012a2,2,0,0,0-1.864-1.257h0a2.006,2.006,0,0,0-1.868,1.257V20.4a1.594,1.594,0,0,0-1.534,1.424l0,.005c-.038.313-.065.643-.077.987l0,.006c-.331-.095-.654-.173-.963-.235h0a1.592,1.592,0,0,0-1.828,1.017l-.014,0A2,2,0,0,0,18.3,24.992v0a2,2,0,0,0,.618,2.162l.012.006a1.59,1.59,0,0,0,.879,1.9l.005,0c.288.134.591.259.916.378l0,0c-.192.286-.363.566-.519.843l-.005,0a1.6,1.6,0,0,0,.4,2.053l0,.012a1.994,1.994,0,0,0,.77,2.112l0,0a2,2,0,0,0,2.25.08l.008-.007a1.6,1.6,0,0,0,2.077-.252l.005,0c.213-.232.429-.485.64-.754h0c.213.269.429.522.641.753l0,.005a1.6,1.6,0,0,0,2.079.252l.008.007a2,2,0,0,0,2.25-.08l0,0a2,2,0,0,0,.769-2.112l-.007-.013a1.59,1.59,0,0,0,.4-2.051l0,0c-.153-.277-.326-.56-.519-.843l.006,0c.326-.121.634-.247.918-.378h.008a1.6,1.6,0,0,0,.878-1.9l.012,0a2,2,0,0,0,.618-2.162m-2.712,3.473L27.4,28.042l3.943,1.784L27.3,28.3l3.348,2.744-3.519-2.519,2.523,3.517L26.9,28.694l1.524,4.049L26.64,28.8l.424,4.309-.7-4.27-.7,4.27.425-4.309-1.789,3.941,1.527-4.049-2.745,3.347L25.6,28.524,22.08,31.044,25.426,28.3l-4.049,1.526,3.942-1.784-4.307.423,4.268-.7-4.268-.7,4.307.424L21.377,25.7l4.049,1.523L22.08,24.477,25.6,27l-2.522-3.517,2.745,3.343-1.527-4.048,1.789,3.943-.425-4.306.7,4.269.7-4.269-.424,4.306,1.785-3.943L26.9,26.826l2.746-3.343L27.125,27l3.519-2.522L27.3,27.222l4.05-1.523L27.4,27.481l4.309-.424-4.271.7Z" transform="translate(-6.39 -6.721)" fill="#cf8b00"/>
    </g>
    <rect id="사각형_1260" data-name="사각형 1260" width="40" height="40" transform="translate(1797.963 932.956)" fill="none"/>
  </g>
</svg>
