<svg xmlns="http://www.w3.org/2000/svg" width="120" height="120" viewBox="0 0 120 120">
  <g id="그룹_15936" data-name="그룹 15936" transform="translate(-1051 -3721)">
    <g id="그룹_15934" data-name="그룹 15934" transform="translate(13144.471 2140.821)">
      <path id="패스_3207" data-name="패스 3207" d="M720.381,3.42l-2.513,2.639a1.818,1.818,0,0,1-.54.39l-3.614,1.7a1.829,1.829,0,0,0-.455.305l-4.616,4.249a1.8,1.8,0,0,1-.993.464L705.1,13.5a1.813,1.813,0,0,1-1.632-.643l-.563-.681a1.813,1.813,0,0,0-2.434-.333l-2.207,1.539a1.8,1.8,0,0,0-.56.628l-.95,1.764a1.812,1.812,0,0,1-1.6.953h-1.372a1.811,1.811,0,0,0-.872.224l-5.346,2.935a1.812,1.812,0,0,0-.552.468l-.855,1.088a1.818,1.818,0,0,1-.548.467L683.4,23.14a1.813,1.813,0,0,0-.479,2.791l1.564,1.76a1.814,1.814,0,0,0,1.824.546l.531-.143a1.812,1.812,0,0,1,2.119,2.5l-3.143,6.9a1.811,1.811,0,0,0,.383,2.049l2.85,2.78a1.813,1.813,0,0,0,1.266.515h3.253a1.506,1.506,0,0,1,1.362.862l1.783,3.772a1.507,1.507,0,0,1-1,2.107,1.505,1.505,0,0,0-1.063,1.956L695.5,54a1.8,1.8,0,0,1,.074.9c-.106.608-.279,1.623-.279,1.747a9.08,9.08,0,0,0,.385,1.143,1.807,1.807,0,0,1-.054,1.4l-2.677,5.752a1.682,1.682,0,0,0-.138.965l.475,3.106a1.68,1.68,0,0,0,.653,1.092l.96.72a1.683,1.683,0,0,0,1.827.125,1.5,1.5,0,0,1,1.339-.061l.642.283a1.684,1.684,0,0,0,1.391-.014l4.642-2.163a1.812,1.812,0,0,1,1.592.03l.969.5a.844.844,0,0,0,1.1-.3.845.845,0,0,1,1.112-.292l.185.1a1.815,1.815,0,0,0,1.609.052l3.561-1.627a1.808,1.808,0,0,0,.731-.607l2.812-4a1.811,1.811,0,0,0,.308-1.319l-1.128-7.31c-.008-.047-.012-.094-.016-.142l-.376-5.038a1.8,1.8,0,0,0-.316-.895l-4.27-6.186a1.811,1.811,0,0,1-.167-.3l-2.481-5.637a1.824,1.824,0,0,0-.174-.309l-3.306-4.728a1.813,1.813,0,0,1,.8-2.716l5.367-2.2a1.808,1.808,0,0,0,.681-.488l7.376-8.484a1.815,1.815,0,0,0,.376-.7l.893-3.148a1.8,1.8,0,0,1,.463-.787l2.128-2.129a1.814,1.814,0,0,0,.423-1.9L723.4,4.052A1.813,1.813,0,0,0,720.381,3.42Z" transform="translate(-12750.931 1599.323)" fill="none" stroke="#aaa" stroke-linecap="round" stroke-linejoin="round" stroke-width="3"/>
      <path id="패스_3208" data-name="패스 3208" d="M747.369,44.43A11.358,11.358,0,1,1,736.01,33.072,11.358,11.358,0,0,1,747.369,44.43Z" transform="translate(-12753 1596)" fill="#fff" stroke="#094cb9" stroke-linecap="round" stroke-linejoin="round" stroke-width="3"/>
      <path id="패스_3209" data-name="패스 3209" d="M754.418,81.636H717.6V65.31a9.522,9.522,0,0,1,9.522-9.522H744.9a9.522,9.522,0,0,1,9.522,9.522Z" transform="translate(-12753 1596)" fill="#fff" stroke="#094cb9" stroke-linecap="round" stroke-linejoin="round" stroke-width="3"/>
      <path id="패스_3210" data-name="패스 3210" d="M742.8,62.705l1.411,2.858,3.154.459-2.283,2.224.539,3.142L742.8,69.905l-2.821,1.483.539-3.142-2.283-2.224,3.154-.459Z" transform="translate(-12753 1596)" fill="#094cb9"/>
    </g>
    <rect id="사각형_1618" data-name="사각형 1618" width="120" height="120" transform="translate(1051 3721)" fill="none"/>
  </g>
</svg>
