<svg id="ic_instargram" xmlns="http://www.w3.org/2000/svg" width="20" height="20" viewBox="0 0 20 20">
  <rect id="사각형_440" data-name="사각형 440" width="20" height="20" fill="none"/>
  <path id="패스_3" data-name="패스 3" d="M10,1.778a30.662,30.662,0,0,1,4,.111,5.154,5.154,0,0,1,1.889.333,3.9,3.9,0,0,1,1.889,1.889A5.154,5.154,0,0,1,18.111,6c0,1,.111,1.333.111,4a30.662,30.662,0,0,1-.111,4,5.154,5.154,0,0,1-.333,1.889,3.9,3.9,0,0,1-1.889,1.889A5.154,5.154,0,0,1,14,18.111c-1,0-1.333.111-4,.111a30.662,30.662,0,0,1-4-.111,5.154,5.154,0,0,1-1.889-.333,3.9,3.9,0,0,1-1.889-1.889A5.154,5.154,0,0,1,1.889,14c0-1-.111-1.333-.111-4a30.662,30.662,0,0,1,.111-4,5.154,5.154,0,0,1,.333-1.889A3.991,3.991,0,0,1,3,3a1.879,1.879,0,0,1,1.111-.778A5.154,5.154,0,0,1,6,1.889a30.662,30.662,0,0,1,4-.111M10,0A32.83,32.83,0,0,0,5.889.111,6.86,6.86,0,0,0,3.444.556,4.35,4.35,0,0,0,1.667,1.667,4.35,4.35,0,0,0,.556,3.444,5.063,5.063,0,0,0,.111,5.889,32.83,32.83,0,0,0,0,10a32.83,32.83,0,0,0,.111,4.111,6.86,6.86,0,0,0,.444,2.444,4.35,4.35,0,0,0,1.111,1.778,4.35,4.35,0,0,0,1.778,1.111,6.86,6.86,0,0,0,2.444.444A32.83,32.83,0,0,0,10,20a32.83,32.83,0,0,0,4.111-.111,6.86,6.86,0,0,0,2.444-.444,4.662,4.662,0,0,0,2.889-2.889,6.86,6.86,0,0,0,.444-2.444C19.889,13,20,12.667,20,10a32.83,32.83,0,0,0-.111-4.111,6.86,6.86,0,0,0-.444-2.444,4.35,4.35,0,0,0-1.111-1.778A4.35,4.35,0,0,0,16.556.556,6.86,6.86,0,0,0,14.111.111,32.83,32.83,0,0,0,10,0m0,4.889A5.029,5.029,0,0,0,4.889,10,5.111,5.111,0,1,0,10,4.889m0,8.444A3.274,3.274,0,0,1,6.667,10,3.274,3.274,0,0,1,10,6.667,3.274,3.274,0,0,1,13.333,10,3.274,3.274,0,0,1,10,13.333m5.333-9.889a1.222,1.222,0,1,0,1.222,1.222,1.233,1.233,0,0,0-1.222-1.222" fill-rule="evenodd"/>
</svg>
