<svg id="ic_search" xmlns="http://www.w3.org/2000/svg" width="20" height="20" viewBox="0 0 20 20">
  <g id="ic_search-2" data-name="ic_search" transform="translate(-19530 -13813)" fill="none">
    <path d="M19544.273,13828.676a8.792,8.792,0,1,1,1.4-1.4l4.322,4.323-1.4,1.4Z" stroke="none"/>
    <path d="M 19538.794921875 13828.58984375 C 19540.330078125 13828.5888671875 19541.83203125 13828.064453125 19543.025390625 13827.1123046875 L 19543.634765625 13826.626953125 L 19544.115234375 13826.025390625 C 19546.26953125 13823.322265625 19546.048828125 13819.4384765625 19543.6015625 13816.990234375 C 19542.318359375 13815.70703125 19540.611328125 13815 19538.794921875 13815 C 19536.98046875 13815 19535.2734375 13815.70703125 19533.990234375 13816.990234375 C 19531.341796875 13819.6396484375 19531.341796875 13823.9501953125 19533.990234375 13826.599609375 C 19535.2734375 13827.8828125 19536.98046875 13828.58984375 19538.794921875 13828.58984375 M 19548.595703125 13832.998046875 L 19544.2734375 13828.67578125 C 19540.8203125 13831.431640625 19535.771484375 13831.2109375 19532.576171875 13828.013671875 C 19529.142578125 13824.5791015625 19529.142578125 13819.0107421875 19532.576171875 13815.576171875 C 19534.29296875 13813.859375 19536.544921875 13813 19538.796875 13813 C 19541.046875 13813 19543.298828125 13813.859375 19545.015625 13815.576171875 C 19548.212890625 13818.7734375 19548.431640625 13823.8203125 19545.677734375 13827.2724609375 L 19550 13831.595703125 L 19548.595703125 13832.998046875 Z" stroke="none" fill="#fff"/>
  </g>
  <rect id="사각형_1202" data-name="사각형 1202" width="20" height="20" fill="none"/>
</svg>
