<svg xmlns="http://www.w3.org/2000/svg" width="21" height="20" viewBox="0 0 21 20">
  <g id="ic_print" transform="translate(0.498)">
    <path id="패스_2023" data-name="패스 2023" d="M14074,17305v-8.9a2.1,2.1,0,0,1,1.281-1.934,2.156,2.156,0,0,1,.816-.164h1.4v-7h13v7h1.4a2.1,2.1,0,0,1,2.1,2.1v8.9Zm1.785-8.9v7.117h16.435v-7.117a.315.315,0,0,0-.317-.312h-15.8A.312.312,0,0,0,14075.783,17296.1Zm3.418-2.1h9.6v-5.3h-9.6Zm-1.7,7.652v-1.8h13v1.8Zm11.665-3.854a1,1,0,1,1,1,1A1,1,0,0,1,14089.164,17297.8Z" transform="translate(-14073.996 -17285.996)" fill="#231815" stroke="rgba(0,0,0,0)" stroke-width="1"/>
    <rect id="사각형_1225" data-name="사각형 1225" width="20" height="20" fill="none"/>
  </g>
</svg>
