<svg xmlns="http://www.w3.org/2000/svg" width="120" height="120" viewBox="0 0 120 120">
  <g id="그룹_15937" data-name="그룹 15937" transform="translate(-916 -3721)">
    <g id="그룹_15933" data-name="그룹 15933" transform="translate(13127.026 2142.2)">
      <path id="패스_3215" data-name="패스 3215" d="M469.129,34.387a9.671,9.671,0,1,1-9.671-9.671A9.671,9.671,0,0,1,469.129,34.387Z" transform="translate(-12580.237 1608.457)" fill="none" stroke="#aaa" stroke-linecap="round" stroke-linejoin="round" stroke-width="3"/>
      <path id="패스_3216" data-name="패스 3216" d="M473.96,69.846H442.613V57.792a9.956,9.956,0,0,1,9.956-9.956H464a9.956,9.956,0,0,1,9.956,9.956Z" transform="translate(-12579.064 1604.679)" fill="none" stroke="#aaa" stroke-linecap="round" stroke-linejoin="round" stroke-width="3"/>
      <g id="그룹_15935" data-name="그룹 15935" transform="translate(0.424 0.424)">
        <path id="패스_3200" data-name="패스 3200" d="M617.718,36.961A30.584,30.584,0,1,1,587.133,6.376,30.584,30.584,0,0,1,617.718,36.961Z" transform="translate(-12753 1596)" fill="none" stroke="#aaa" stroke-linecap="round" stroke-linejoin="round" stroke-width="3"/>
        <path id="패스_3201" data-name="패스 3201" d="M602.7,36.961c0,16.891-6.922,30.584-15.458,30.584s-15.458-13.693-15.458-30.584S578.7,6.376,587.239,6.376,602.7,20.07,602.7,36.961Z" transform="translate(-12753.105 1596)" fill="none" stroke="#aaa" stroke-linecap="round" stroke-linejoin="round" stroke-width="3"/>
        <line id="선_56848" data-name="선 56848" x2="61.169" transform="translate(-12196.451 1632.961)" fill="none" stroke="#aaa" stroke-linecap="round" stroke-linejoin="round" stroke-width="3"/>
        <line id="선_56849" data-name="선 56849" y2="61.169" transform="translate(-12165.867 1602.376)" fill="none" stroke="#aaa" stroke-linecap="round" stroke-linejoin="round" stroke-width="3"/>
        <path id="패스_3202" data-name="패스 3202" d="M606.241,13.061a23.405,23.405,0,0,1-19.027,9.733,23.407,23.407,0,0,1-19.027-9.733" transform="translate(-12753.08 1595.954)" fill="none" stroke="#aaa" stroke-linecap="round" stroke-linejoin="round" stroke-width="3"/>
        <path id="패스_3203" data-name="패스 3203" d="M568.187,61.216a23.331,23.331,0,0,1,38.054,0" transform="translate(-12753.08 1595.69)" fill="none" stroke="#aaa" stroke-linecap="round" stroke-linejoin="round" stroke-width="3"/>
      </g>
      <path id="패스_3204" data-name="패스 3204" d="M629.5,41.319a11.358,11.358,0,1,1-11.357-11.358A11.358,11.358,0,0,1,629.5,41.319Z" transform="translate(-12772 1596)" fill="#fff" stroke="#094cb9" stroke-linecap="round" stroke-linejoin="round" stroke-width="3"/>
      <path id="패스_3205" data-name="패스 3205" d="M636.549,78.525H599.735V62.2a9.522,9.522,0,0,1,9.522-9.522h17.77a9.522,9.522,0,0,1,9.522,9.522Z" transform="translate(-12772 1596)" fill="#fff" stroke="#094cb9" stroke-linecap="round" stroke-linejoin="round" stroke-width="3"/>
      <path id="패스_3206" data-name="패스 3206" d="M624.935,59.594l1.411,2.858,3.154.459-2.283,2.224.539,3.142-2.821-1.483-2.821,1.483.539-3.142-2.283-2.224,3.154-.459Z" transform="translate(-12772 1596)" fill="#094cb9"/>
    </g>
    <rect id="사각형_1618" data-name="사각형 1618" width="120" height="120" transform="translate(916 3721)" fill="none"/>
  </g>
</svg>
