<svg id="ic_share" xmlns="http://www.w3.org/2000/svg" width="20" height="20.001" viewBox="0 0 20 20.001">
  <path id="ic_share-2" data-name="ic_share" d="M20.8,23.7a2.83,2.83,0,0,1-2.094-.874,2.862,2.862,0,0,1-.862-2.081,2.894,2.894,0,0,1,.037-.419,2.187,2.187,0,0,1,.111-.443L10.749,15.67a2.732,2.732,0,0,1-.936.714,2.656,2.656,0,0,1-1.158.271A2.943,2.943,0,0,1,5.7,13.7a2.943,2.943,0,0,1,2.956-2.956,2.829,2.829,0,0,1,1.133.234,2.884,2.884,0,0,1,.961.677l7.241-4.163a1.712,1.712,0,0,1-.111-.406,2.779,2.779,0,0,1-.037-.431,2.961,2.961,0,0,1,5.049-2.094,2.85,2.85,0,0,1,.862,2.094A2.943,2.943,0,0,1,20.8,9.611a3.394,3.394,0,0,1-1.145-.2A2.183,2.183,0,0,1,18.73,8.8l-7.241,3.99a4.419,4.419,0,0,1,.086.468,3.415,3.415,0,0,1,.037.443,2.01,2.01,0,0,1-.037.369q-.037.2-.086.419l7.241,4.089a3.04,3.04,0,0,1,.887-.567,2.977,2.977,0,0,1,1.182-.222,2.961,2.961,0,0,1,2.094,5.049A2.85,2.85,0,0,1,20.8,23.7Z" transform="translate(-4.701 -3.699)"/>
  <rect id="사각형_1222" data-name="사각형 1222" width="20" height="20" fill="none"/>
</svg>
