<svg id="ic_youtube" xmlns="http://www.w3.org/2000/svg" width="20" height="20" viewBox="0 0 20 20">
  <rect id="사각형_441" data-name="사각형 441" width="20" height="20" fill="none"/>
  <path id="youtube" d="M10.934,18.147V11.932l5.4,3.118ZM22.8,10.857a5.091,5.091,0,0,0-.8-2.2,2.719,2.719,0,0,0-2-.936C17.2,7.5,13,7.5,13,7.5H13s-4.2,0-7,.223A2.719,2.719,0,0,0,4,8.66a5.1,5.1,0,0,0-.8,2.2s-.2,1.79-.2,3.58v1.678c0,1.789.2,3.58.2,3.58a5.092,5.092,0,0,0,.8,2.2,3.2,3.2,0,0,0,2.205.945c1.6.169,6.8.221,6.8.221s4.2-.007,7-.23a2.718,2.718,0,0,0,2-.936,5.1,5.1,0,0,0,.8-2.2s.2-1.791.2-3.58V14.436c0-1.791-.2-3.58-.2-3.58Z" transform="translate(-3 -5.501)" fill-rule="evenodd"/>
</svg>
