<svg id="ic_attachment" xmlns="http://www.w3.org/2000/svg" width="28" height="28" viewBox="0 0 28 28">
  <path id="패스_2996" data-name="패스 2996" d="M7.7,24.54a7.706,7.706,0,0,1-7.7-7.7V6.235H2.246V16.843a5.45,5.45,0,1,0,10.9,0V5.68a3.432,3.432,0,1,0-6.864,0V15.713a1.4,1.4,0,1,0,2.793,0V6.235h2.247v9.478a3.644,3.644,0,1,1-7.288,0V5.68a5.679,5.679,0,1,1,11.358,0V16.843a7.706,7.706,0,0,1-7.7,7.7" transform="translate(6.305 1.73)" fill="#aaa"/>
  <rect id="사각형_1534" data-name="사각형 1534" width="28" height="28" fill="none"/>
</svg>
