<svg xmlns="http://www.w3.org/2000/svg" width="120" height="120" viewBox="0 0 120 120">
  <g id="그룹_15941" data-name="그룹 15941" transform="translate(-359 -3721)">
    <g id="그룹_15929" data-name="그룹 15929" transform="translate(13130.5 2143.5)">
      <path id="패스_3185" data-name="패스 3185" d="M49.589,9.589A8.089,8.089,0,1,1,41.5,1.5,8.089,8.089,0,0,1,49.589,9.589Z" transform="translate(-12753 1596)" fill="none" stroke="#094cb9" stroke-linecap="round" stroke-linejoin="round" stroke-width="3"/>
      <path id="패스_3186" data-name="패스 3186" d="M54.609,36.086H28.391V26a8.327,8.327,0,0,1,8.327-8.326h9.564A8.327,8.327,0,0,1,54.609,26Z" transform="translate(-12753 1596)" fill="none" stroke="#094cb9" stroke-linecap="round" stroke-linejoin="round" stroke-width="3"/>
      <rect id="사각형_1615" data-name="사각형 1615" width="45.152" height="7.735" transform="translate(-12734.076 1632.085)" fill="none" stroke="#aaa" stroke-linecap="round" stroke-linejoin="round" stroke-width="3"/>
      <path id="패스_3187" data-name="패스 3187" d="M56.808,81.5H26.192L24.91,43.82H58.09Z" transform="translate(-12753 1596)" fill="none" stroke="#aaa" stroke-linecap="round" stroke-linejoin="round" stroke-width="3"/>
      <rect id="사각형_1616" data-name="사각형 1616" width="14.783" height="6.601" transform="translate(-12718.892 1647.982)" fill="none" stroke="#aaa" stroke-linecap="round" stroke-linejoin="round" stroke-width="3"/>
      <path id="패스_3188" data-name="패스 3188" d="M76.479,55a8.088,8.088,0,1,1-8.089-8.089A8.089,8.089,0,0,1,76.479,55Z" transform="translate(-12753 1596)" fill="#fff" stroke="#aaa" stroke-linecap="round" stroke-linejoin="round" stroke-width="3"/>
      <path id="패스_3189" data-name="패스 3189" d="M81.5,81.5H55.282V71.418a8.327,8.327,0,0,1,8.327-8.326h9.564A8.327,8.327,0,0,1,81.5,71.418Z" transform="translate(-12753 1596)" fill="#fff" stroke="#aaa" stroke-linecap="round" stroke-linejoin="round" stroke-width="3"/>
      <path id="패스_3190" data-name="패스 3190" d="M22.7,55a8.089,8.089,0,1,1-8.089-8.089A8.089,8.089,0,0,1,22.7,55Z" transform="translate(-12753 1596)" fill="#fff" stroke="#aaa" stroke-linecap="round" stroke-linejoin="round" stroke-width="3"/>
      <path id="패스_3191" data-name="패스 3191" d="M27.718,81.5H1.5V71.418a8.327,8.327,0,0,1,8.327-8.326h9.564a8.327,8.327,0,0,1,8.327,8.326Z" transform="translate(-12753 1596)" fill="#fff" stroke="#aaa" stroke-linecap="round" stroke-linejoin="round" stroke-width="3"/>
      <path id="패스_3192" data-name="패스 3192" d="M46.338,22.6l1,2.036,2.246.326L47.964,26.55l.383,2.238-2.009-1.057-2.009,1.057.383-2.238-1.625-1.584,2.246-.326Z" transform="translate(-12753 1596)" fill="#094cb9"/>
    </g>
    <rect id="사각형_1617" data-name="사각형 1617" width="120" height="120" transform="translate(359 3721)" fill="none"/>
  </g>
</svg>
