<svg id="logo_w" xmlns="http://www.w3.org/2000/svg" xmlns:xlink="http://www.w3.org/1999/xlink" width="152" height="46" viewBox="0 0 152 46">
  <defs>
    <clipPath id="clip-path">
      <rect id="사각형_951" data-name="사각형 951" width="152" height="46" transform="translate(24 6)" fill="none"/>
    </clipPath>
  </defs>
  <g id="그룹_4501" data-name="그룹 4501" transform="translate(-24 -6)" clip-path="url(#clip-path)">
    <path id="패스_1949" data-name="패스 1949" d="M86.658,43.991V43.1a4.342,4.342,0,0,0,.756.395,1.734,1.734,0,0,0,.606.113.91.91,0,0,0,.446-.089.328.328,0,0,0,.056-.5,1.357,1.357,0,0,0-.439-.207,3.516,3.516,0,0,1-1.18-.612,1.082,1.082,0,0,1-.315-.8A1,1,0,0,1,87,40.559a1.754,1.754,0,0,1,1.086-.316,2.985,2.985,0,0,1,.69.081,3.819,3.819,0,0,1,.677.24v.821a5.087,5.087,0,0,0-.723-.3,1.882,1.882,0,0,0-.586-.1.875.875,0,0,0-.435.084.253.253,0,0,0-.15.23.3.3,0,0,0,.139.237,1.255,1.255,0,0,0,.4.212c.034.016.1.036.173.069a4.827,4.827,0,0,1,.82.365,1.072,1.072,0,0,1,.394.41,1.264,1.264,0,0,1,.139.591,1.037,1.037,0,0,1-.429.873,1.87,1.87,0,0,1-1.159.317,2.57,2.57,0,0,1-.719-.1,2.71,2.71,0,0,1-.669-.292" transform="translate(0.461 -4.187)" fill="#fff"/>
    <rect id="사각형_939" data-name="사각형 939" width="1.031" height="4.005" transform="translate(90.705 36.12)" fill="#fff"/>
    <path id="패스_1950" data-name="패스 1950" d="M96.04,41.145a1.115,1.115,0,0,1,.829.326,1.18,1.18,0,0,1,.321.859,1.163,1.163,0,0,1-.321.855,1.091,1.091,0,0,1-.829.333h-.75V41.145Zm-.247,3.19a4.421,4.421,0,0,0,.922-.074,1.7,1.7,0,0,0,.574-.232,1.959,1.959,0,0,0,.692-.729,1.918,1.918,0,0,0,.241-.97,1.993,1.993,0,0,0-.191-.889,2.061,2.061,0,0,0-.586-.694,1.865,1.865,0,0,0-.652-.317,3.751,3.751,0,0,0-1-.1h-1.5v4.005Z" transform="translate(-1.736 -4.21)" fill="#fff"/>
    <path id="패스_1951" data-name="패스 1951" d="M106.313,41.817v2.518h-.988V40.329h.882l2.146,2.386V40.329h.988v4.005h-.785Z" transform="translate(-4.88 -4.21)" fill="#fff"/>
    <path id="패스_1952" data-name="패스 1952" d="M112.864,44.335V41.077h-1.332V40.33h3.711v.747h-1.326v3.258Z" transform="translate(-6.648 -4.21)" fill="#fff"/>
    <rect id="사각형_940" data-name="사각형 940" width="1.032" height="4.005" transform="translate(109.059 36.12)" fill="#fff"/>
    <path id="패스_1953" data-name="패스 1953" d="M121.531,41.349l.56,1.521H120.91ZM120.3,44.335l.318-.778h1.728l.29.778H123.7l-1.561-4.005h-1.156l-1.752,4.005Z" transform="translate(-8.837 -4.21)" fill="#fff"/>
    <path id="패스_1954" data-name="패스 1954" d="M125.858,44.335V40.33h1.011v3.229h1.714v.776Z" transform="translate(-10.729 -4.21)" fill="#fff"/>
    <path id="패스_1955" data-name="패스 1955" d="M132.425,43.991V43.1a4.14,4.14,0,0,0,.76.395,1.724,1.724,0,0,0,.6.113.9.9,0,0,0,.446-.089.3.3,0,0,0,.144-.27.308.308,0,0,0-.089-.231,1.321,1.321,0,0,0-.441-.207,3.409,3.409,0,0,1-1.175-.612,1.057,1.057,0,0,1-.319-.8,1.014,1.014,0,0,1,.42-.834,1.733,1.733,0,0,1,1.087-.316,2.917,2.917,0,0,1,.686.081,3.765,3.765,0,0,1,.676.24v.821a5.023,5.023,0,0,0-.719-.3,1.863,1.863,0,0,0-.586-.1.89.89,0,0,0-.435.084.261.261,0,0,0-.156.23.3.3,0,0,0,.145.237,1.232,1.232,0,0,0,.4.212c.043.016.1.036.173.069a4.514,4.514,0,0,1,.822.365,1,1,0,0,1,.392.41,1.231,1.231,0,0,1,.139.591,1.029,1.029,0,0,1-.424.873,1.867,1.867,0,0,1-1.158.317,2.573,2.573,0,0,1-.72-.1,2.718,2.718,0,0,1-.668-.292" transform="translate(-12.577 -4.187)" fill="#fff"/>
    <path id="패스_1956" data-name="패스 1956" d="M145.575,43.97a2.933,2.933,0,0,1-1.53.405,2.5,2.5,0,0,1-.865-.144,1.94,1.94,0,0,1-.689-.416,1.892,1.892,0,0,1-.456-.68,2.048,2.048,0,0,1-.162-.831,1.938,1.938,0,0,1,.62-1.5,2.333,2.333,0,0,1,1.643-.571,3.148,3.148,0,0,1,.712.079,3.183,3.183,0,0,1,.687.247v.935a2.512,2.512,0,0,0-.666-.317,2.056,2.056,0,0,0-.672-.1,1.315,1.315,0,0,0-.945.326,1.178,1.178,0,0,0-.345.909,1.234,1.234,0,0,0,.33.9,1.21,1.21,0,0,0,.891.335,2.125,2.125,0,0,0,.724-.13,2.989,2.989,0,0,0,.724-.374Z" transform="translate(-15.288 -4.183)" fill="#fff"/>
    <path id="패스_1957" data-name="패스 1957" d="M151.626,40.329v2.3a1.7,1.7,0,0,1-.5,1.306,2.3,2.3,0,0,1-2.79,0,1.689,1.689,0,0,1-.5-1.306v-2.3h1.012v2.254a1.083,1.083,0,0,0,.227.735.845.845,0,0,0,.664.252.814.814,0,0,0,.652-.252,1.059,1.059,0,0,0,.235-.735V40.329Z" transform="translate(-16.988 -4.21)" fill="#fff"/>
    <rect id="사각형_941" data-name="사각형 941" width="1.028" height="4.005" transform="translate(139.253 36.12)" fill="#fff"/>
    <path id="패스_1958" data-name="패스 1958" d="M162.988,44.335V41.077h-1.325V40.33h3.71v.747h-1.327v3.258Z" transform="translate(-20.927 -4.21)" fill="#fff"/>
    <path id="패스_1959" data-name="패스 1959" d="M168.314,44.335V42.523l-1.572-2.193h1.2l.877,1.3.9-1.3h1.2l-1.6,2.186v1.819Z" transform="translate(-22.372 -4.21)" fill="#fff"/>
    <path id="패스_1960" data-name="패스 1960" d="M175.077,43.991V43.1a4.23,4.23,0,0,0,.759.395,1.709,1.709,0,0,0,.6.113.894.894,0,0,0,.445-.089.3.3,0,0,0,.149-.27.322.322,0,0,0-.089-.231,1.427,1.427,0,0,0-.444-.207,3.415,3.415,0,0,1-1.173-.612,1.08,1.08,0,0,1-.321-.8,1,1,0,0,1,.42-.834,1.756,1.756,0,0,1,1.09-.316,2.905,2.905,0,0,1,.684.081,4.051,4.051,0,0,1,.684.24v.821a4.648,4.648,0,0,0-.734-.3,1.815,1.815,0,0,0-.574-.1.872.872,0,0,0-.438.084.248.248,0,0,0-.154.23.288.288,0,0,0,.139.237,1.25,1.25,0,0,0,.4.212c.039.016.1.036.172.069a4.748,4.748,0,0,1,.829.365,1.079,1.079,0,0,1,.395.41,1.271,1.271,0,0,1,.123.591,1.017,1.017,0,0,1-.416.873,1.87,1.87,0,0,1-1.162.317,2.564,2.564,0,0,1-.716-.1,2.628,2.628,0,0,1-.667-.292" transform="translate(-24.724 -4.187)" fill="#fff"/>
    <path id="패스_1961" data-name="패스 1961" d="M191.266,44.371l-1.818-4.041h1.073l.988,2.321,1.063-2.321h1.084l-1.96,4.041Z" transform="translate(-28.84 -4.21)" fill="#fff"/>
    <rect id="사각형_942" data-name="사각형 942" width="1.028" height="4.005" transform="translate(165.119 36.12)" fill="#fff"/>
    <path id="패스_1962" data-name="패스 1962" d="M201.749,43.97a2.949,2.949,0,0,1-.733.309,3.159,3.159,0,0,1-.8.1,2.511,2.511,0,0,1-.863-.144,1.931,1.931,0,0,1-.685-.416,2,2,0,0,1-.464-.68,2.2,2.2,0,0,1-.159-.831,1.96,1.96,0,0,1,.624-1.5,2.351,2.351,0,0,1,1.638-.571,3.11,3.11,0,0,1,.717.079,3.4,3.4,0,0,1,.692.247v.935a2.625,2.625,0,0,0-.667-.317,2.074,2.074,0,0,0-.671-.1,1.292,1.292,0,0,0-.945.326,1.192,1.192,0,0,0-.347.909,1.231,1.231,0,0,0,.33.9,1.208,1.208,0,0,0,.89.335,2.122,2.122,0,0,0,.722-.13,2.865,2.865,0,0,0,.722-.374Z" transform="translate(-31.288 -4.183)" fill="#fff"/>
    <rect id="사각형_943" data-name="사각형 943" width="2.675" height="0.736" transform="translate(83.827 36.12)" fill="#fff"/>
    <path id="패스_1963" data-name="패스 1963" d="M82.09,42.5v2.452h2.733v-.748H83.1V43.25H84.7V42.5Z" transform="translate(1.738 -4.829)" fill="#fff"/>
    <rect id="사각형_944" data-name="사각형 944" width="2.674" height="0.736" transform="translate(97.057 36.12)" fill="#fff"/>
    <path id="패스_1964" data-name="패스 1964" d="M100.586,42.5v2.452h2.723v-.748h-1.721V43.25h1.594V42.5Z" transform="translate(-3.529 -4.829)" fill="#fff"/>
    <rect id="사각형_945" data-name="사각형 945" width="2.672" height="0.736" transform="translate(123.423 36.12)" fill="#fff"/>
    <path id="패스_1965" data-name="패스 1965" d="M137.453,42.5v2.452h2.722v-.748h-1.722V43.25h1.6V42.5Z" transform="translate(-14.03 -4.829)" fill="#fff"/>
    <rect id="사각형_946" data-name="사각형 946" width="2.668" height="0.736" transform="translate(153.94 36.12)" fill="#fff"/>
    <path id="패스_1966" data-name="패스 1966" d="M180.122,42.5v2.452h2.721v-.748h-1.721V43.25h1.595V42.5Z" transform="translate(-26.183 -4.829)" fill="#fff"/>
    <rect id="사각형_947" data-name="사각형 947" width="2.674" height="0.736" transform="translate(171.07 36.12)" fill="#fff"/>
    <path id="패스_1967" data-name="패스 1967" d="M204.078,42.5v2.452h2.73v-.748h-1.724V43.25h1.6V42.5Z" transform="translate(-33.006 -4.829)" fill="#fff"/>
    <path id="패스_1968" data-name="패스 1968" d="M74.314,40.626a2.007,2.007,0,0,0-1.2-.3H71.634v.747h1.492a.608.608,0,0,1,.4.119.411.411,0,0,1,.139.339.421.421,0,0,1-.129.345.627.627,0,0,1-.421.115H71.634v2.339h1.015V42.77h.383a2.125,2.125,0,0,0,1.257-.307,1.094,1.094,0,0,0,.415-.934,1.053,1.053,0,0,0-.388-.9" transform="translate(4.718 -4.21)" fill="#fff"/>
    <path id="패스_1969" data-name="패스 1969" d="M79.6,42.963a1.216,1.216,0,0,0-.206-.325.729.729,0,0,0-.269-.175,1.33,1.33,0,0,0,.527-.405.935.935,0,0,0,.173-.565,1.014,1.014,0,0,0-.388-.877,2.083,2.083,0,0,0-1.21-.287H76.752v.711h1.482a.61.61,0,0,1,.407.117.415.415,0,0,1,.144.342.426.426,0,0,1-.137.355.6.6,0,0,1-.415.121H76.752v2.359h1V42.71a.162.162,0,0,0,.059-.009h.064a.815.815,0,0,1,.443.1.868.868,0,0,1,.286.372l.511,1.159h1.136Z" transform="translate(3.259 -4.21)" fill="#fff"/>
    <path id="패스_1970" data-name="패스 1970" d="M157.111,42.963a1.346,1.346,0,0,0-.215-.325.709.709,0,0,0-.271-.175,1.346,1.346,0,0,0,.531-.405.926.926,0,0,0,.175-.565,1.012,1.012,0,0,0-.39-.877,2.047,2.047,0,0,0-1.206-.287h-1.48v.711h1.489a.642.642,0,0,1,.407.117.443.443,0,0,1,.14.342.422.422,0,0,1-.137.355.6.6,0,0,1-.41.121h-1.489v2.359h1V42.71a.123.123,0,0,0,.051-.009h.064a.825.825,0,0,1,.446.1.853.853,0,0,1,.282.372l.513,1.159h1.133Z" transform="translate(-18.814 -4.21)" fill="#fff"/>
    <path id="패스_1971" data-name="패스 1971" d="M187.722,42.963a1.38,1.38,0,0,0-.208-.325.9.9,0,0,0-.266-.175,1.4,1.4,0,0,0,.523-.405.92.92,0,0,0,.171-.565,1,1,0,0,0-.393-.877,2.044,2.044,0,0,0-1.207-.287h-1.48v.711h1.489a.636.636,0,0,1,.408.117.5.5,0,0,1,0,.7.583.583,0,0,1-.411.121h-1.489v2.359h1.008V42.71a.156.156,0,0,0,.051-.009h.061a.818.818,0,0,1,.446.1.77.77,0,0,1,.285.372l.511,1.159h1.137Z" transform="translate(-27.533 -4.21)" fill="#fff"/>
    <path id="패스_1972" data-name="패스 1972" d="M102.3,51.111V53.4a1.733,1.733,0,0,1-.5,1.313,2.325,2.325,0,0,1-2.8,0,1.712,1.712,0,0,1-.5-1.313V51.111h1.019v2.254a1.038,1.038,0,0,0,.22.732,1,1,0,0,0,1.324,0,1.1,1.1,0,0,0,.22-.736V51.111Z" transform="translate(-2.938 -7.285)" fill="#fff"/>
    <path id="패스_1973" data-name="패스 1973" d="M116.352,55.111v-4h1.006v3.23h1.72v.771Z" transform="translate(-8.02 -7.285)" fill="#fff"/>
    <rect id="사각형_948" data-name="사각형 948" width="1.031" height="4.001" transform="translate(114.26 43.825)" fill="#fff"/>
    <path id="패스_1974" data-name="패스 1974" d="M133.583,54.745a3.1,3.1,0,0,1-.74.307,3.034,3.034,0,0,1-.8.1,2.432,2.432,0,0,1-.858-.147,1.855,1.855,0,0,1-.687-.418,1.932,1.932,0,0,1-.466-.676,2.249,2.249,0,0,1-.152-.829,1.941,1.941,0,0,1,.619-1.5,2.327,2.327,0,0,1,1.643-.571,3.118,3.118,0,0,1,.713.078,3.268,3.268,0,0,1,.69.244v.936a2.878,2.878,0,0,0-.669-.322,2.282,2.282,0,0,0-.664-.1,1.3,1.3,0,0,0-.948.326,1.173,1.173,0,0,0-.357.913,1.208,1.208,0,0,0,.333.9,1.182,1.182,0,0,0,.89.337,2.211,2.211,0,0,0,.724-.127,3.2,3.2,0,0,0,.724-.372Z" transform="translate(-11.875 -7.254)" fill="#fff"/>
    <path id="패스_1975" data-name="패스 1975" d="M145.941,52.2a1.17,1.17,0,0,1,1.651,0,1.28,1.28,0,0,1,.323.891,1.254,1.254,0,0,1-.323.882,1.16,1.16,0,0,1-1.651,0,1.244,1.244,0,0,1-.321-.882,1.269,1.269,0,0,1,.321-.891m-1.2,1.713a1.893,1.893,0,0,0,.473.671,1.953,1.953,0,0,0,.682.43,2.387,2.387,0,0,0,.863.147,2.354,2.354,0,0,0,.857-.147,2.015,2.015,0,0,0,1.169-1.1,2.248,2.248,0,0,0,0-1.649,2.1,2.1,0,0,0-.469-.677,1.994,1.994,0,0,0-.692-.423,2.448,2.448,0,0,0-.866-.142,2.608,2.608,0,0,0-.863.136,1.9,1.9,0,0,0-.682.429,2,2,0,0,0-.473.677,2.064,2.064,0,0,0-.162.826,2.139,2.139,0,0,0,.162.822" transform="translate(-16.061 -7.258)" fill="#fff"/>
    <path id="패스_1976" data-name="패스 1976" d="M176.525,52.2a1.163,1.163,0,0,1,1.646,0,1.265,1.265,0,0,1,.325.891,1.24,1.24,0,0,1-.325.882,1.153,1.153,0,0,1-1.646,0,1.246,1.246,0,0,1-.328-.882,1.271,1.271,0,0,1,.328-.891m-1.2,1.713a1.956,1.956,0,0,0,.465.671,2.014,2.014,0,0,0,.691.43,2.38,2.38,0,0,0,.857.147,2.407,2.407,0,0,0,.863-.147,2.016,2.016,0,0,0,.7-.43,1.983,1.983,0,0,0,.464-.671,2.165,2.165,0,0,0,0-1.649,2.1,2.1,0,0,0-.464-.677,2.045,2.045,0,0,0-.691-.423,2.484,2.484,0,0,0-.87-.142,2.561,2.561,0,0,0-.857.136,1.98,1.98,0,0,0-.691.429,1.888,1.888,0,0,0-.465.677,2.175,2.175,0,0,0,0,1.649" transform="translate(-24.772 -7.258)" fill="#fff"/>
    <path id="패스_1977" data-name="패스 1977" d="M166.438,55.111v-4h1V52.9L168.8,51.11h1.126l-1.416,1.853,1.773,2.148h-1.3l-1.537-1.877v1.877Z" transform="translate(-22.285 -7.285)" fill="#fff"/>
    <path id="패스_1978" data-name="패스 1978" d="M204.679,52.126l.559,1.516h-1.179Zm-1.23,2.985.323-.774h1.721l.29.774h1.057l-1.558-4h-1.151l-1.749,4Z" transform="translate(-32.523 -7.285)" fill="#fff"/>
    <rect id="사각형_949" data-name="사각형 949" width="2.671" height="0.733" transform="translate(83.375 43.825)" fill="#fff"/>
    <path id="패스_1979" data-name="패스 1979" d="M81.437,53.28v2.45h2.731v-.746H82.445v-.954h1.593v-.747Z" transform="translate(1.926 -7.902)" fill="#fff"/>
    <rect id="사각형_950" data-name="사각형 950" width="2.675" height="0.733" transform="translate(164.233 43.825)" fill="#fff"/>
    <path id="패스_1980" data-name="패스 1980" d="M194.5,53.28v2.45h2.726v-.746H195.5v-.954h1.6v-.747Z" transform="translate(-30.277 -7.902)" fill="#fff"/>
    <path id="패스_1981" data-name="패스 1981" d="M93.145,51.412a1.976,1.976,0,0,0-1.2-.292H90.465v.747h1.492a.607.607,0,0,1,.407.117.429.429,0,0,1,.144.34.413.413,0,0,1-.139.346.672.672,0,0,1-.421.117H90.465v2.336h1.014V53.562h.385a2.077,2.077,0,0,0,1.255-.315,1.087,1.087,0,0,0,.42-.927,1.061,1.061,0,0,0-.394-.907" transform="translate(-0.648 -7.287)" fill="#fff"/>
    <path id="패스_1982" data-name="패스 1982" d="M74.49,53.714a1.369,1.369,0,0,0-.205-.322.681.681,0,0,0-.272-.182,1.324,1.324,0,0,0,.529-.4.929.929,0,0,0,.173-.568,1.007,1.007,0,0,0-.386-.877,2.121,2.121,0,0,0-1.215-.283h-1.48v.709h1.486a.653.653,0,0,1,.416.123.441.441,0,0,1,.136.342.46.46,0,0,1-.132.353.636.636,0,0,1-.421.108H71.633v2.364h1.008V53.456H72.7a.271.271,0,0,1,.06-.005.8.8,0,0,1,.446.1.939.939,0,0,1,.287.378l.5,1.15h1.132Z" transform="translate(4.718 -7.275)" fill="#fff"/>
    <path id="패스_1983" data-name="패스 1983" d="M187.73,53.747a1.188,1.188,0,0,0-.216-.319.731.731,0,0,0-.265-.182,1.287,1.287,0,0,0,.526-.4.934.934,0,0,0,.174-.565,1,1,0,0,0-.394-.876,2.049,2.049,0,0,0-1.212-.286h-1.472v.711h1.487a.615.615,0,0,1,.406.115.446.446,0,0,1,.144.345.439.439,0,0,1-.139.354.625.625,0,0,1-.411.114h-1.487v2.364h1.006V53.492h.051a.386.386,0,0,1,.062,0,.79.79,0,0,1,.441.1.757.757,0,0,1,.287.384l.513,1.151h1.13Z" transform="translate(-27.535 -7.287)" fill="#fff"/>
    <path id="패스_1984" data-name="패스 1984" d="M156.151,51.849v-.738h-2.592v.738h2.592Z" transform="translate(-18.617 -7.285)" fill="#fff"/>
    <path id="패스_1985" data-name="패스 1985" d="M153.564,55.749h1V54.105h1.5v-.753h-1.5v0h-1Z" transform="translate(-18.617 -7.921)" fill="#fff"/>
    <path id="패스_1986" data-name="패스 1986" d="M110.514,53.313a1.2,1.2,0,0,0-.619-.391.937.937,0,0,0,.4-.318.826.826,0,0,0,.131-.468.861.861,0,0,0-.4-.769,2.231,2.231,0,0,0-1.189-.256h-1.481v.707h1.232v0h.293a.621.621,0,0,1,.4.114.432.432,0,0,1,.134.344.366.366,0,0,1-.134.311.643.643,0,0,1-.4.105h-.513v-.011h-1.012v.726h1.581a.967.967,0,0,1,.549.122.423.423,0,0,1,.182.38.4.4,0,0,1-.165.356,1.082,1.082,0,0,1-.559.109h-.576v-.005h-1.012v.74h1.788a2.036,2.036,0,0,0,1.189-.285.99.99,0,0,0,.395-.857,1.014,1.014,0,0,0-.21-.657" transform="translate(-5.454 -7.285)" fill="#fff"/>
    <path id="패스_1987" data-name="패스 1987" d="M41.775,54.248a8.871,8.871,0,0,0,6.29-10.08,8.613,8.613,0,0,0-.209-.892,8.01,8.01,0,0,0-.3-.868,4.465,4.465,0,0,0-8.315,3.02,2.868,2.868,0,0,1,.1.29c.031.1.054.2.075.3A4.465,4.465,0,0,1,31.1,49.033a8.874,8.874,0,0,0,10.677,5.215" transform="translate(16.264 -4.125)" fill="#fff"/>
    <path id="패스_1988" data-name="패스 1988" d="M56.251,22.8a8.873,8.873,0,0,0-8.557-9.173,9.106,9.106,0,0,0-.918.015,4.463,4.463,0,0,0,.3,8.838c.1,0,.2-.005.308,0s.2.012.3.021a4.464,4.464,0,0,1,.3,8.838,8.869,8.869,0,0,0,8.26-8.539" transform="translate(12.852 3.402)" fill="#fff"/>
    <path id="패스_1989" data-name="패스 1989" d="M29.926.537A8.876,8.876,0,0,0,18.911,5c-.13.271-.25.553-.357.843a8.544,8.544,0,0,0-.267.876,4.464,4.464,0,0,0,8.5,2.444c.029-.1.06-.2.1-.292s.073-.19.115-.282a4.464,4.464,0,0,1,8.5,2.444A8.871,8.871,0,0,0,29.926.537" transform="translate(19.926 7.285)" fill="#fff"/>
    <path id="패스_1990" data-name="패스 1990" d="M1.881,17.383a8.871,8.871,0,0,0,1.528,12.45c.245.189.494.366.75.527a4.465,4.465,0,0,0,4.954-7.329c-.085-.056-.166-.115-.249-.178s-.159-.129-.233-.2a4.463,4.463,0,0,1,4.953-7.326,8.873,8.873,0,0,0-11.7,2.055" transform="translate(25.122 3.302)" fill="#fff"/>
    <path id="패스_1991" data-name="패스 1991" d="M8.751,50.587a8.879,8.879,0,0,0,11.533,2.868c.265-.147.527-.3.784-.474a8.864,8.864,0,0,0,.732-.551,4.465,4.465,0,0,0-5.442-6.974c-.082.062-.161.123-.246.18s-.173.112-.261.163a4.464,4.464,0,0,1-5.44-6.974A8.867,8.867,0,0,0,8.751,50.587" transform="translate(23.06 -3.781)" fill="#fff"/>
    <path id="패스_1992" data-name="패스 1992" d="M36.078,25.589l0-.005a2.2,2.2,0,0,0-1.948-1.526l-.013,0A1.761,1.761,0,0,0,32.1,22.939h-.006c-.342.07-.7.153-1.063.258v0c-.017-.38-.043-.743-.085-1.088V22.1a1.755,1.755,0,0,0-1.689-1.569l0-.014A2.2,2.2,0,0,0,27.2,19.134h0a2.21,2.21,0,0,0-2.058,1.386v.014a1.756,1.756,0,0,0-1.69,1.569l0,.006c-.041.345-.072.709-.085,1.088l0,.007c-.365-.1-.721-.19-1.061-.259h-.005a1.755,1.755,0,0,0-2.014,1.121l-.015,0a2.2,2.2,0,0,0-1.953,1.527v0a2.2,2.2,0,0,0,.682,2.382l.014.006a1.752,1.752,0,0,0,.969,2.09l.006,0c.318.147.652.285,1.009.416l0,0c-.212.315-.4.624-.571.929l-.006,0a1.758,1.758,0,0,0,.445,2.262l-.005.013a2.2,2.2,0,0,0,.848,2.327l0,0a2.2,2.2,0,0,0,2.48.088l.009-.008a1.758,1.758,0,0,0,2.289-.278l.006-.005c.235-.256.473-.534.705-.831h0c.235.3.473.575.707.83l0,.006a1.761,1.761,0,0,0,2.291.278l.009.008a2.209,2.209,0,0,0,2.48-.088l0,0a2.2,2.2,0,0,0,.847-2.327l-.008-.014a1.752,1.752,0,0,0,.444-2.261l0,0c-.169-.305-.359-.617-.572-.929l.006-.005c.36-.133.7-.272,1.012-.417h.009a1.759,1.759,0,0,0,.968-2.093l.013-.005a2.2,2.2,0,0,0,.681-2.382m-2.989,3.827-4.748-.466,4.345,1.966-4.463-1.682,3.69,3.024-3.878-2.776,2.781,3.876L27.789,29.67l1.68,4.462L27.5,29.788l.468,4.748-.775-4.705-.775,4.705.468-4.748-1.971,4.343L26.6,29.67l-3.025,3.688,2.779-3.876-3.877,2.776,3.687-3.024L21.7,30.917l4.344-1.966-4.747.466,4.7-.775-4.7-.776,4.747.467L21.7,26.369l4.462,1.679-3.687-3.025,3.877,2.78-2.779-3.876L26.6,27.611,24.916,23.15l1.971,4.345-.468-4.745.775,4.7.775-4.7L27.5,27.495l1.967-4.345-1.68,4.461,3.027-3.684L28.035,27.8l3.878-2.78-3.69,3.025,4.463-1.679-4.345,1.964,4.748-.467-4.707.776Z" transform="translate(19.936 1.831)" fill="#fff"/>
    <path id="패스_1993" data-name="패스 1993" d="M73.878,18.211H79.8v2.2H72.627a1.2,1.2,0,0,1-.863-.264,1.554,1.554,0,0,1-.288-1.057V8.663h6.751v2.2H73.878Zm8.713-2.66h-.982v8.157H79.377V8.663h2.233v4.651h.982V8.663h2.284V23.708H82.591Z" transform="translate(4.761 4.815)" fill="#fff"/>
    <path id="패스_1994" data-name="패스 1994" d="M100.51,15.48v-.916h2.369v.916h6v1.955H94.505V15.48Zm-.016-.581H96.128a1.172,1.172,0,0,1-.846-.265,1.564,1.564,0,0,1-.287-1.057V8.662h13.4v1.85H97.415v.51h10.978v1.6H97.415v.546h10.978V14.9h-7.9Zm4.516,2.008a3.819,3.819,0,0,1,1.574,3.1,4.2,4.2,0,0,1-1.523,3.312,5.111,5.111,0,0,1-6.7,0,4.222,4.222,0,0,1-1.505-3.312,3.817,3.817,0,0,1,1.574-3.1,5.3,5.3,0,0,1,6.58,0m-5.023,1.375a2.3,2.3,0,0,0-.744,1.744,2.34,2.34,0,0,0,.744,1.744,2.488,2.488,0,0,0,3.434,0,2.34,2.34,0,0,0,.744-1.744,2.3,2.3,0,0,0-.744-1.744,2.488,2.488,0,0,0-3.434,0" transform="translate(-1.796 4.815)" fill="#fff"/>
    <path id="패스_1995" data-name="패스 1995" d="M124.589,10.811h-5.683V8.662h8.086v4.81h-5.7v.775h5.7v2.1h-6.953a1.17,1.17,0,0,1-.846-.265,1.556,1.556,0,0,1-.287-1.057V11.569h5.683Zm5.515,5.814a4.369,4.369,0,0,1,0,6.571,4.874,4.874,0,0,1-6.479,0,4.439,4.439,0,0,1,0-6.571,4.872,4.872,0,0,1,6.479,0m-4.838,1.621a2.3,2.3,0,0,0,0,3.33,2.318,2.318,0,0,0,1.641.652,2.24,2.24,0,0,0,1.607-.652,2.3,2.3,0,0,0,0-3.33,2.272,2.272,0,0,0-1.607-.634,2.352,2.352,0,0,0-1.641.634m4.651-8.72V8.662H132.3v7.682h-2.387V14.529H127.87V12.538h2.046V11.516H127.87V9.526Z" transform="translate(-8.747 4.815)" fill="#fff"/>
    <path id="패스_1996" data-name="패스 1996" d="M150.89,8.663v1.18a5.65,5.65,0,0,1-2.826,5.179,11,11,0,0,1-5.447,1.409V14.16a8.205,8.205,0,0,0,4.483-1.18,2.648,2.648,0,0,0,1.285-2.185h-5.549V8.663Zm3.078,7.857a4.458,4.458,0,0,1,0,6.712,4.818,4.818,0,0,1-3.315,1.268,4.756,4.756,0,0,1-3.3-1.268,4.525,4.525,0,0,1,0-6.712,4.8,4.8,0,0,1,3.3-1.25,4.859,4.859,0,0,1,3.315,1.25m-4.939,1.674a2.211,2.211,0,0,0-.744,1.691,2.246,2.246,0,0,0,.744,1.692,2.388,2.388,0,0,0,3.316,0,2.236,2.236,0,0,0,.727-1.692,2.2,2.2,0,0,0-.727-1.691,2.34,2.34,0,0,0-1.658-.652,2.377,2.377,0,0,0-1.657.652m4.6-8.544V8.663h2.386v7.17H153.63V14.67h-2.148V12.68h2.148V11.64h-2.148V9.65Z" transform="translate(-15.502 4.815)" fill="#fff"/>
    <path id="패스_1997" data-name="패스 1997" d="M174.037,16.337v3.947h5.987v2.2H165.645v-2.2h5.989V16.337Zm2.5-5.6a3.241,3.241,0,0,1,.625.987,3.071,3.071,0,0,1,.237,1.2,4.072,4.072,0,0,1-1.439,3.189,4.537,4.537,0,0,1-3.13,1.2,4.6,4.6,0,0,1-3.18-1.2,4.073,4.073,0,0,1-1.437-3.189,3.534,3.534,0,0,1,.2-1.18,4.078,4.078,0,0,1,.524-1h-2.453V8.551h5.042V7.159h2.555V8.551h5.057v2.184Zm-5.313.687a2.054,2.054,0,0,0-.642,1.515,2.1,2.1,0,0,0,.642,1.551,2.169,2.169,0,0,0,1.607.651,2.211,2.211,0,0,0,2.183-2.2,2.053,2.053,0,0,0-.644-1.515,2.147,2.147,0,0,0-1.54-.617,2.267,2.267,0,0,0-1.607.617" transform="translate(-22.061 5.244)" fill="#fff"/>
    <path id="패스_1998" data-name="패스 1998" d="M195.566,11.11a11.625,11.625,0,0,0,1.058,4.95,3.359,3.359,0,0,0,2.4,1.832v2.449a5.758,5.758,0,0,1-2.89-1.145,6.108,6.108,0,0,1-1.85-2.572,6.163,6.163,0,0,1-4.74,3.717V17.909a3.513,3.513,0,0,0,2.379-1.867,11.472,11.472,0,0,0,1.075-4.933h-3.243v-2.2h3.243V7.533h2.59V8.908h3.208v2.2Zm5.692,1.3V8.344h2.485V23.388h-2.485V14.615h-3.3v-2.2Z" transform="translate(-28.865 5.138)" fill="#fff"/>
  </g>
</svg>
