<svg xmlns="http://www.w3.org/2000/svg" width="1400" height="889" viewBox="0 0 1400 889">
  <g id="그룹_16417" data-name="그룹 16417" transform="translate(-260 -4337)">
    <g id="그룹_15403" data-name="그룹 15403" transform="translate(0 -5)">
      <path id="패스_2981" data-name="패스 2981" d="M.125,351.625C.125,157.5,157.5.125,351.625.125s351.5,157.373,351.5,351.5" transform="translate(608.375 4461.375)" fill="none" stroke="#d6d6d6" stroke-miterlimit="10" stroke-width="1"/>
      <g id="그룹_15401" data-name="그룹 15401" transform="translate(0 -38)">
        <circle id="타원_110" data-name="타원 110" cx="125" cy="125" r="125" transform="translate(835 4687)" fill="#094cb9"/>
        <path id="패스_3293" data-name="패스 3293" d="M-4.977-41.336h-5.637v7.77h-9.242a24.1,24.1,0,0,0,.406-4.57H-40.523v4.57h14.93c-.914,6.83-6.627,12.264-17.367,15.184l2.285,4.469c10-2.768,16.682-7.871,19.6-15.184h10.461v4.926H-21.531v4.57h10.918v5.078h5.637ZM-20.16-14.016c-9.395,0-15.59,3.5-15.59,9.141s6.2,9.141,15.59,9.141c9.293,0,15.488-3.5,15.488-9.141S-10.867-14.016-20.16-14.016Zm0,4.418c6.043,0,9.852,1.676,9.852,4.723,0,3-3.809,4.672-9.852,4.672-6.2,0-9.953-1.676-9.953-4.672C-30.113-7.922-26.355-9.6-20.16-9.6Zm61.5-25.645H25.188v-5.535H19.6v5.535H3.4v4.57H41.336ZM43.469-4.977H25.188v-5.687c7.82-.609,12.645-3.783,12.645-8.836,0-5.535-5.992-8.836-15.437-8.836-9.6,0-15.539,3.3-15.488,8.836-.051,5.078,4.748,8.252,12.7,8.887v5.637H1.523v4.57H43.469ZM22.395-23.918c6.145.051,9.648,1.523,9.648,4.418,0,2.945-3.5,4.418-9.648,4.469-6.246-.051-9.75-1.523-9.7-4.469C12.645-22.395,16.148-23.867,22.395-23.918Z" transform="translate(960 4799)" fill="#fff"/>
        <path id="패스_3294" data-name="패스 3294" d="M-44.033-15.918h-2.187v9.473h2.188ZM-53.564-5.625h-2.148V1.523h11.68V-5.625H-46.2v1.816h-7.363Zm0,5.391V-2.109H-46.2V-.234Zm-.1-14.9c-2.734-.02-4.766,1.68-4.766,4.141,0,2.4,2.031,4.1,4.766,4.1,2.715,0,4.746-1.7,4.746-4.1C-48.916-13.457-50.947-15.156-53.662-15.137Zm0,1.816A2.353,2.353,0,0,1-51.045-11a2.375,2.375,0,0,1-2.617,2.324A2.371,2.371,0,0,1-56.3-11,2.35,2.35,0,0,1-53.662-13.32Zm17.6,2.793v-.547h2.949v-1.758h-2.949v-2.461h-2.051v2.461h-3.008v1.758h3.008v.547c0,2.793-1.113,5.742-3.613,7.188l1.27,1.641a8.024,8.024,0,0,0,3.4-4.687,7.294,7.294,0,0,0,3.379,4.277l1.211-1.6A7.518,7.518,0,0,1-36.064-10.527Zm9.8-5.391h-2.07V1.738h2.07Zm-3.594.332H-31.9v6.445h-2.3v1.8h2.3V.879h2.051Zm12.168,2.7v-.215h3.652v-1.738h-9.531v1.738h3.672v.234A5.94,5.94,0,0,1-24.209-7.3L-23.1-5.586A7.02,7.02,0,0,0-18.76-9.609a6.816,6.816,0,0,0,4.141,3.633l1.094-1.68A5.644,5.644,0,0,1-17.686-12.891Zm8.3,8.34H-21.416v1.738h9.863V1.738h2.168Zm0-11.367h-2.168v4.375h-3.008v1.777h3.008v4.375h2.168ZM.01-4.668a1.534,1.534,0,0,0,1.5-1.523A1.53,1.53,0,0,0,.01-7.7a1.521,1.521,0,0,0-1.523,1.5A1.525,1.525,0,0,0,.01-4.668ZM24.17-6.016H8.037v1.758H11.9v6h2.227v-6h3.906v6h2.207v-6H24.17Zm-8.105-9.277c-3.77.02-6.348,1.543-6.328,3.945-.02,2.363,2.559,3.867,6.328,3.867,3.75,0,6.367-1.5,6.367-3.867C22.432-13.75,19.814-15.273,16.064-15.293Zm0,1.758c2.5,0,4.121.8,4.121,2.188C20.186-10,18.564-9.2,16.064-9.2s-4.121-.8-4.1-2.148C11.943-12.734,13.564-13.535,16.064-13.535Zm24.023-2.383H37.9V1.738h2.188Zm-5.273,1.875H26.357v1.719h6.25c-.381,4.014-2.529,7-7.148,9.2l1.133,1.738C32.783-4.316,34.814-8.789,34.814-14.043Zm14.3,1.152v-.215h3.652v-1.738H43.232v1.738H46.9v.234A5.94,5.94,0,0,1,42.588-7.3L43.7-5.586a7.02,7.02,0,0,0,4.336-4.023,6.816,6.816,0,0,0,4.141,3.633l1.094-1.68A5.644,5.644,0,0,1,49.111-12.891Zm8.3,8.34H45.381v1.738h9.863V1.738h2.168Zm0-11.367H55.244v4.375H52.236v1.777h3.008v4.375h2.168ZM-38.857,12.1h-2.168V15.09H-44.58a9.27,9.27,0,0,0,.156-1.758h-8.105V15.09h5.742c-.352,2.627-2.549,4.717-6.68,5.84l.879,1.719c3.848-1.064,6.416-3.027,7.539-5.84h4.023V18.7h-4.2v1.758h4.2v1.953h2.168ZM-44.7,22.609c-3.613,0-6,1.348-6,3.516s2.383,3.516,6,3.516c3.574,0,5.957-1.348,5.957-3.516S-41.123,22.609-44.7,22.609Zm0,1.7c2.324,0,3.789.645,3.789,1.816,0,1.152-1.465,1.8-3.789,1.8-2.383,0-3.828-.645-3.828-1.8C-48.525,24.953-47.08,24.309-44.7,24.309Zm23.652-9.863h-6.211V12.316H-29.4v2.129h-6.23V16.2h14.59Zm.82,11.641h-7.031V23.9c3.008-.234,4.863-1.455,4.863-3.4,0-2.129-2.3-3.4-5.937-3.4-3.691,0-5.977,1.27-5.957,3.4-.02,1.953,1.826,3.174,4.883,3.418v2.168h-6.953v1.758h16.133ZM-28.33,18.8c2.363.02,3.711.586,3.711,1.7,0,1.133-1.348,1.7-3.711,1.719-2.4-.02-3.75-.586-3.73-1.719C-32.08,19.387-30.732,18.82-28.33,18.8Zm23.242-6.719H-7.256V22.473h2.168V18.2h2.383V16.379H-5.088Zm0,11.094h-11.8v1.465h9.629v1h-9.59v3.945H-4.463V28.117H-14.678V26.984h9.59ZM-19.229,20.7l.234,1.523a67.13,67.13,0,0,0,11-.664l-.176-1.367c-1.416.186-2.93.313-4.434.371v-.8c1.953-.215,3.145-1.016,3.145-2.3,0-1.426-1.66-2.266-4.258-2.266s-4.258.84-4.258,2.266c0,1.309,1.221,2.109,3.2,2.3v.879C-16.377,20.7-17.9,20.7-19.229,20.7Zm10.586-7.422h-3.965V11.945h-2.168v1.328h-4v1.484H-8.643Zm-5.078,3.281c1.367.02,2.188.313,2.188.9,0,.625-.82.977-2.187.977s-2.187-.352-2.168-.977C-15.908,16.867-15.088,16.574-13.721,16.555Zm28.047,3.984H7.334v-1.68h5.137V17.141H2.354V14.582h10.02v-1.7H.186v5.977h5.02v1.68H-1.787v1.738H14.326ZM6.24,23.293c-3.848,0-6.152,1.152-6.152,3.223,0,2.051,2.3,3.223,6.152,3.223,3.809,0,6.094-1.172,6.113-3.223C12.334,24.445,10.049,23.293,6.24,23.293Zm0,1.66c2.52,0,3.926.547,3.945,1.563-.02,1.016-1.426,1.543-3.945,1.543-2.578,0-3.965-.527-3.945-1.543C2.275,25.5,3.662,24.953,6.24,24.953ZM34.912,12.082H32.764v9h2.148Zm.039,9.824H23.232v1.68h9.551v1.289H23.271v4.707H35.479V27.863H25.4V26.5h9.551Zm-8.125-8.027V12.512H24.58v1.367a5.844,5.844,0,0,1-4.355,5.488l1.094,1.7a7.042,7.042,0,0,0,4.414-3.945,6.848,6.848,0,0,0,4.316,3.633l1.055-1.68A5.5,5.5,0,0,1,26.826,13.879ZM44.209,16.32V13.508H42V16.32c0,3.4-1.719,6.777-4.668,8.047l1.328,1.816a8.9,8.9,0,0,0,4.473-5.527,8.6,8.6,0,0,0,4.336,5.117l1.289-1.738C45.889,22.8,44.189,19.563,44.209,16.32Zm8.008-4.238H50.029V29.758h2.188Z" transform="translate(960 4841)" fill="#fff"/>
      </g>
      <g id="그룹_15391" data-name="그룹 15391" transform="translate(-237 -280)">
        <circle id="타원_112" data-name="타원 112" cx="60" cy="60" r="60" transform="translate(1137 4682)" fill="#e9e9e9"/>
        <path id="패스_3289" data-name="패스 3289" d="M-2.68-22.258H-5.715v4.184h-4.977a12.978,12.978,0,0,0,.219-2.461H-21.82v2.461h8.039c-.492,3.678-3.568,6.6-9.352,8.176l1.23,2.406c5.387-1.49,8.982-4.238,10.555-8.176h5.633v2.652h-5.879v2.461h5.879V-7.82H-2.68ZM-10.855-7.547c-5.059,0-8.395,1.887-8.395,4.922S-15.914,2.3-10.855,2.3c5,0,8.34-1.887,8.34-4.922S-5.852-7.547-10.855-7.547Zm0,2.379c3.254,0,5.3.9,5.3,2.543,0,1.613-2.051,2.516-5.3,2.516-3.336,0-5.359-.9-5.359-2.516C-16.215-4.266-14.191-5.168-10.855-5.168ZM21.383-22.285H18.32V2.461h3.063ZM5.168-20.262H2.133v16.9H14.164v-16.9H11.156v6.18H5.168Zm0,14.41V-11.7h5.988v5.852Z" transform="translate(1197 4752)"/>
      </g>
      <g id="그룹_15392" data-name="그룹 15392" transform="translate(-196 -233)">
        <circle id="타원_119" data-name="타원 119" cx="60" cy="60" r="60" transform="translate(1272 4682)" fill="#e9e9e9"/>
        <path id="패스_3290" data-name="패스 3290" d="M-.793-3.035h-9.844V-7.848h7.273v-12.8H-6.4V-16.6H-17.855v-4.047h-3.035v12.8h7.246v4.813h-9.734V-.547H-.793Zm-17.062-7.273v-3.855H-6.4v3.855ZM20.316-22.285H17.281V-4.211h3.035v-8.312h3.445v-2.516H20.316ZM21.3-.52H7.52V-6.1H4.484V1.941H21.3ZM7.766-20.645c-3.746,0-6.7,2.6-6.672,6.234C1.066-10.828,4.02-8.2,7.766-8.2s6.645-2.625,6.672-6.207C14.41-18.047,11.512-20.645,7.766-20.645Zm0,2.652a3.489,3.489,0,0,1,3.691,3.582,3.476,3.476,0,0,1-3.691,3.527A3.462,3.462,0,0,1,4.074-14.41,3.474,3.474,0,0,1,7.766-17.992Z" transform="translate(1332 4752)"/>
      </g>
      <g id="그룹_15394" data-name="그룹 15394" transform="translate(-69 -245)">
        <circle id="타원_120" data-name="타원 120" cx="60" cy="60" r="60" transform="translate(1272 4822)" fill="#e9e9e9"/>
        <path id="패스_3291" data-name="패스 3291" d="M-15.367-20.562c-3.883-.027-6.781,2.461-6.781,5.961,0,3.527,2.9,5.988,6.781,5.988,3.91,0,6.781-2.461,6.809-5.988C-8.586-18.1-11.457-20.59-15.367-20.562Zm0,2.625c2.188,0,3.828,1.285,3.828,3.336,0,2.078-1.641,3.336-3.828,3.336-2.16,0-3.773-1.258-3.773-3.336C-19.141-16.652-17.527-17.937-15.367-17.937Zm12.578-4.348H-5.824V2.461h3.035ZM-23.27-5.2l.383,2.488A85.455,85.455,0,0,0-7.055-3.8L-7.3-6.016A118.331,118.331,0,0,1-23.27-5.2Zm46.648-3.09H.793v2.461h9.734v8.23h3.008v-8.23h9.844ZM20.617-21.027H3.555v9.844H20.617ZM6.535-18.594H17.582v5.031H6.535Z" transform="translate(1332 4892)"/>
      </g>
      <g id="그룹_15393" data-name="그룹 15393" transform="translate(114 -70)">
        <circle id="타원_115" data-name="타원 115" cx="60" cy="60" r="60" transform="translate(1137 4822)" fill="#e9e9e9"/>
        <path id="패스_3292" data-name="패스 3292" d="M-3.828-22.285H-6.891V2.434h3.063V-9.543H-.355v-2.543H-3.828ZM-23.68-4.43l.438,2.516A87.894,87.894,0,0,0-8.012-2.926L-8.2-5.141c-1.941.273-4.02.438-6.1.547V-6.809c2.693-.437,4.484-2.133,4.512-4.457-.027-2.789-2.516-4.648-6.016-4.648-3.555,0-6.016,1.859-5.988,4.648-.027,2.311,1.736,4.006,4.43,4.457v2.324C-19.633-4.43-21.807-4.43-23.68-4.43Zm15.2-15.012H-14.3v-2.734h-3.062v2.734h-5.852v2.406H-8.477ZM-15.8-13.59c1.859.027,3.09.875,3.09,2.324,0,1.422-1.23,2.27-3.09,2.242-1.887.027-3.117-.82-3.117-2.242C-18.922-12.715-17.691-13.562-15.8-13.59ZM15.5-19.906h-5.8v-2.488H6.672v2.488H.848V-17.5H15.5ZM8.176-16.543c-3.582,0-6.07,1.8-6.07,4.512S4.594-7.52,8.176-7.52s6.016-1.8,6.043-4.512C14.191-14.738,11.758-16.543,8.176-16.543Zm0,2.3c1.887,0,3.145.82,3.145,2.215s-1.258,2.188-3.145,2.16c-1.887.027-3.117-.766-3.117-2.16S6.289-14.246,8.176-14.246Zm12.141-8.039H17.281V-6.809h3.035v-6.426h3.445v-2.488H20.316Zm0,16.625H3.855v2.434H17.281v5.66h3.035Z" transform="translate(1197 4892)"/>
      </g>
      <g id="그룹_15390" data-name="그룹 15390" transform="translate(71 -303)">
        <circle id="타원_114" data-name="타원 114" cx="60" cy="60" r="60" transform="translate(654 4752)" fill="#e9e9e9"/>
        <path id="패스_3288" data-name="패스 3288" d="M-2.734-22.285H-5.8V2.434h3.063Zm-7.383,2.625h-11.84v2.406h8.75c-.533,5.619-3.541,9.8-10.008,12.879l1.586,2.434C-12.961-6.043-10.117-12.3-10.117-19.66Zm33.5,9.215H13.59V-12.8h7.191V-15.2H6.617v-3.582H20.645v-2.379H3.582V-12.8h7.027v2.352H.82v2.434H23.379ZM12.059-6.59c-5.387,0-8.613,1.613-8.613,4.512,0,2.871,3.227,4.512,8.613,4.512,5.332,0,8.531-1.641,8.559-4.512C20.59-4.977,17.391-6.59,12.059-6.59Zm0,2.324c3.527,0,5.5.766,5.523,2.188-.027,1.422-2,2.16-5.523,2.16-3.609,0-5.551-.738-5.523-2.16C6.508-3.5,8.449-4.266,12.059-4.266Z" transform="translate(714 4822)"/>
      </g>
      <g id="그룹_15389" data-name="그룹 15389" transform="translate(30)">
        <circle id="타원_116" data-name="타원 116" cx="60" cy="60" r="60" transform="translate(519 4752)" fill="#e9e9e9"/>
        <path id="패스_3286" data-name="패스 3286" d="M-2.68-22.285H-5.715v6.152H-9.926v2.488h4.211V-7.6H-2.68ZM-11.047-6.973c-5.223,0-8.422,1.723-8.395,4.7-.027,2.98,3.172,4.7,8.395,4.7C-5.8,2.434-2.6.711-2.6-2.27S-5.8-6.973-11.047-6.973Zm0,2.324c3.445,0,5.414.82,5.414,2.379C-5.633-.738-7.6.082-11.047.082s-5.387-.82-5.387-2.352C-16.434-3.828-14.492-4.648-11.047-4.648Zm-3.254-13.4v-.164h5.113v-2.461H-22.531v2.461h5.141v.191a8.547,8.547,0,0,1-6.07,7.957l1.586,2.406a10.2,10.2,0,0,0,6.1-5.8,9.612,9.612,0,0,0,5.77,5.141l1.531-2.406C-12.3-12-14.3-15.039-14.3-18.047ZM23.406-3.035H13.563V-7.848h7.273v-12.8H17.8V-16.6H6.344v-4.047H3.309v12.8h7.246v4.813H.82V-.547H23.406ZM6.344-10.309v-3.855H17.8v3.855Z" transform="translate(579 4822)"/>
      </g>
      <g id="그룹_15388" data-name="그룹 15388" transform="translate(13 -62)">
        <circle id="타원_123" data-name="타원 123" cx="60" cy="60" r="60" transform="translate(584 4632)" fill="#e9e9e9"/>
        <path id="패스_3287" data-name="패스 3287" d="M-3.883-22.285H-6.918V-6.508h3.035v-6.727H-.437v-2.543H-3.883Zm-7.984,16c-5.141,0-8.285,1.613-8.258,4.348-.027,2.707,3.117,4.348,8.258,4.348,5.059,0,8.258-1.641,8.258-4.348C-3.609-4.676-6.809-6.289-11.867-6.289Zm0,2.324c3.336,0,5.223.656,5.223,2.023,0,1.313-1.887,2.051-5.223,2.051-3.391,0-5.277-.738-5.25-2.051C-17.145-3.309-15.258-3.965-11.867-3.965ZM-8.7-19.77h-5.8v-2.68h-3.035v2.68h-5.824v2.379H-8.7Zm-7.328,3.363c-3.609,0-6.07,1.777-6.07,4.43s2.461,4.4,6.07,4.4c3.582,0,6.016-1.75,6.043-4.4C-10.008-14.629-12.441-16.406-16.023-16.406Zm0,2.242c1.887,0,3.145.82,3.145,2.188,0,1.34-1.258,2.105-3.145,2.105s-3.117-.766-3.117-2.105C-19.141-13.344-17.91-14.164-16.023-14.164ZM11.949-6.836C6.617-6.809,3.2-5.113,3.2-2.187c0,2.871,3.418,4.594,8.75,4.594,5.359,0,8.75-1.723,8.777-4.594C20.7-5.113,17.309-6.809,11.949-6.836Zm0,2.3c3.582,0,5.742.848,5.77,2.352C17.691-.738,15.531.055,11.949.055c-3.555,0-5.715-.793-5.687-2.242C6.234-3.691,8.395-4.539,11.949-4.539Zm8.613-16.57H3.445V-18.7H17.527a21.787,21.787,0,0,1-.656,5.934l3.008.273a23.478,23.478,0,0,0,.684-6.562ZM23.3-11.074H12.578v-4.484H9.57v4.484H.875v2.461H23.3Z" transform="translate(644 4702)"/>
      </g>
      <g id="그룹_15402" data-name="그룹 15402" transform="translate(55 -16)">
        <path id="패스_2107" data-name="패스 2107" d="M-19433-2091h1095.1" transform="translate(19841.424 7172.5)" fill="none" stroke="#d3d3d3" stroke-width="1"/>
        <g id="그룹_15396" data-name="그룹 15396" transform="translate(-88)">
          <circle id="타원_117" data-name="타원 117" cx="106" cy="106" r="106" transform="translate(1229 4975)" fill="#e9e9e9"/>
          <path id="패스_3299" data-name="패스 3299" d="M-24.922-14.9H-37.09v1.758h10a25.789,25.789,0,0,1-.43,5.137H-39.082V-6.23h16.133V-8.008h-2.363a29.155,29.155,0,0,0,.391-5.43Zm.508,14.512h-10.43v-4.16h-2.148V1.367h12.578Zm17.4-15.527H-9.18v4.063h-3.047v1.8H-9.18v3.77h2.168ZM-16.484-5.547h-2.168v7.07H-7.012v-7.07H-9.18v1.836h-7.3Zm0,5.313V-2.012h7.3V-.234ZM-11.66-15.02h-9.531v1.777h3.672A5.986,5.986,0,0,1-21.836-7.7l1.113,1.719a7.127,7.127,0,0,0,4.336-4.043,6.962,6.962,0,0,0,4.141,3.672l1.094-1.68a5.691,5.691,0,0,1-4.16-5.215h3.652ZM10.273-15.9H8.105v2.988H4.551a9.27,9.27,0,0,0,.156-1.758H-3.4v1.758H2.344c-.352,2.627-2.549,4.717-6.68,5.84l.879,1.719c3.848-1.064,6.416-3.027,7.539-5.84H8.105V-9.3h-4.2v1.758h4.2v1.953h2.168ZM4.434-5.391c-3.613,0-6,1.348-6,3.516s2.383,3.516,6,3.516c3.574,0,5.957-1.348,5.957-3.516S8.008-5.391,4.434-5.391Zm0,1.7c2.324,0,3.789.645,3.789,1.816,0,1.152-1.465,1.8-3.789,1.8C2.051-.078.605-.723.605-1.875.605-3.047,2.051-3.691,4.434-3.691Zm23.652-9.863H21.875v-2.129H19.727v2.129H13.5V-11.8h14.59Zm.82,11.641H21.875V-4.1c3.008-.234,4.863-1.455,4.863-3.4,0-2.129-2.3-3.4-5.937-3.4-3.691,0-5.977,1.27-5.957,3.4-.02,1.953,1.826,3.174,4.883,3.418v2.168H12.773V-.156H28.906ZM20.8-9.2c2.363.02,3.711.586,3.711,1.7,0,1.133-1.348,1.7-3.711,1.719-2.4-.02-3.75-.586-3.73-1.719C17.051-8.613,18.4-9.18,20.8-9.2ZM36.953-4.668a1.534,1.534,0,0,0,1.5-1.523,1.53,1.53,0,0,0-1.5-1.5,1.521,1.521,0,0,0-1.523,1.5A1.525,1.525,0,0,0,36.953-4.668ZM-35.156,22.023H-51.289v1.8h6.953v5.918h2.148V23.82h7.031Zm-8.105-9.316c-3.77.02-6.348,1.543-6.328,3.965-.02,2.4,2.559,3.906,6.328,3.906,3.75,0,6.367-1.5,6.367-3.906C-36.895,14.25-39.512,12.727-43.262,12.707Zm0,1.758c2.5,0,4.121.82,4.121,2.207,0,1.367-1.621,2.188-4.121,2.188s-4.121-.82-4.1-2.187C-47.383,15.285-45.762,14.465-43.262,14.465Zm12.031-1.6h-2.148v7.7h8.418v-7.7h-2.148v2.246H-31.23Zm0,5.977V16.75h4.121v2.09Zm11.172-6.758h-2.168v9.043h2.168V17.414H-17.6V15.656h-2.461Zm0,9.746H-31.6v1.7h9.375v1.348h-9.355v4.707h12.07V27.863h-9.922V26.457h9.375Zm9.609-6.934V13.02h-2.168V14.7a6.1,6.1,0,0,1-4.277,5.859l1.172,1.7A7.061,7.061,0,0,0-11.484,18.2,6.672,6.672,0,0,0-7.461,21.77l1.172-1.7A5.482,5.482,0,0,1-10.449,14.895Zm7.676-2.812H-4.941V22.648h2.168V18.176H-.312v-1.8H-2.773ZM-8.516,23.039c-3.691-.02-5.977,1.23-5.977,3.32,0,2.129,2.285,3.359,5.977,3.359,3.652,0,5.9-1.23,5.918-3.359C-2.617,24.27-4.863,23.02-8.516,23.039Zm0,1.7c2.422,0,3.77.586,3.77,1.621,0,1.094-1.348,1.641-3.77,1.641s-3.809-.547-3.809-1.641C-12.324,25.324-10.937,24.738-8.516,24.738ZM14.57,12.1H12.4V24.035H14.57V19h2.383V17.219H14.57ZM8.73,24.191c-3.809,0-5.957,1-5.957,2.793s2.148,2.754,5.957,2.754c3.75,0,5.918-.957,5.938-2.754C14.648,25.188,12.48,24.191,8.73,24.191Zm0,1.6c2.5-.02,3.73.391,3.75,1.191-.02.742-1.25,1.152-3.75,1.152-2.539,0-3.789-.41-3.789-1.152C4.941,26.184,6.191,25.773,8.73,25.793ZM.43,21.77l.234,1.68a67.183,67.183,0,0,0,11-.7l-.176-1.5c-1.416.2-2.93.322-4.434.391V20.539C9,20.314,10.2,19.426,10.2,18.1c0-1.562-1.66-2.52-4.258-2.52S1.68,16.535,1.68,18.1c0,1.338,1.221,2.236,3.2,2.461v1.152C3.291,21.77,1.768,21.77.43,21.77Zm10.586-8.32H7.051v-1.5H4.883v1.5h-4v1.6H11.016ZM5.938,17.023c1.367,0,2.188.41,2.188,1.074,0,.7-.82,1.094-2.187,1.094S3.75,18.8,3.77,18.1C3.75,17.434,4.57,17.023,5.938,17.023Zm27.129-4.941H31V19H29V12.414H27.012V28.84H29V20.734H31v9h2.07Zm-8.047,2.09h-6.6V25.617h1.191a32.076,32.076,0,0,0,6.445-.508L25.9,23.332a29.179,29.179,0,0,1-5.293.449V15.93H25.02Zm24.824-2.09H47.656V29.758h2.188ZM38.262,13.527H36.094V25.6h8.594V13.527H42.539v4.414H38.262Zm0,10.293v-4.18h4.277v4.18Z" transform="translate(1335 5096)"/>
          <path id="패스_3298" data-name="패스 3298" d="M-10.5-20.234v-1.258h-3.2v1.258c0,3.117-3.473,6.262-8.7,6.945l1.2,2.461c4.156-.629,7.479-2.693,9.105-5.5,1.6,2.8,4.936,4.867,9.133,5.5l1.2-2.461C-7.027-13.973-10.5-17.117-10.5-20.234ZM-.848-8.7H-23.379V-6.18h9.707V2.434h3.008V-6.18H-.848Zm22.8-13.59h-2.9v6.344H16.652v-5.852H13.809V-7.574h2.844V-13.48h2.406v6.727h2.9Zm-8.969,2.68H8.367v-2.461H5.359v2.461H.684v2.379h12.3ZM6.863-16.215c-3.09,0-5.332,1.7-5.3,4.266-.027,2.57,2.215,4.266,5.3,4.266,3.145,0,5.359-1.7,5.387-4.266C12.223-14.52,10.008-16.215,6.863-16.215Zm0,2.188c1.559,0,2.625.793,2.625,2.078S8.422-9.871,6.863-9.871s-2.6-.793-2.6-2.078S5.332-14.027,6.863-14.027Zm6.754,7.574C8.34-6.453,5.141-4.84,5.141-2c0,2.789,3.2,4.4,8.477,4.4S22.066.793,22.094-2C22.066-4.84,18.895-6.453,13.617-6.453Zm0,2.324c3.5-.027,5.414.684,5.414,2.133,0,1.367-1.914,2.078-5.414,2.078C10.09.082,8.176-.629,8.176-2,8.176-3.445,10.09-4.156,13.617-4.129Z" transform="translate(1335 5055)"/>
        </g>
        <g id="그룹_15397" data-name="그룹 15397" transform="translate(-66)">
          <circle id="타원_124" data-name="타원 124" cx="106" cy="106" r="106" transform="translate(979 4975)" fill="#e9e9e9"/>
          <path id="패스_3295" data-name="패스 3295" d="M-36.449-6.836c-5.332.027-8.75,1.723-8.75,4.648,0,2.871,3.418,4.594,8.75,4.594,5.359,0,8.75-1.723,8.777-4.594C-27.7-5.113-31.09-6.809-36.449-6.836Zm0,2.3c3.582,0,5.742.848,5.77,2.352C-30.707-.738-32.867.055-36.449.055c-3.555,0-5.715-.793-5.687-2.242C-42.164-3.691-40-4.539-36.449-4.539Zm8.613-16.57H-44.953V-18.7h14.082a21.787,21.787,0,0,1-.656,5.934l3.008.273a23.478,23.478,0,0,0,.684-6.562ZM-25.1-11.074H-35.82v-4.484h-3.008v4.484h-8.7v2.461H-25.1ZM-2.68-6.508H-19.523V-4.1H-5.715V2.434H-2.68Zm0-15.777H-5.715v3.418h-5.824a6.523,6.523,0,0,0-4.977-2.051c-3.719-.027-6.535,2.488-6.535,5.988,0,3.555,2.816,6.07,6.535,6.07a6.622,6.622,0,0,0,5-2.105h5.8v3.281H-2.68Zm-13.836,3.938a3.392,3.392,0,0,1,3.582,3.418,3.426,3.426,0,0,1-3.582,3.5,3.4,3.4,0,0,1-3.637-3.5A3.363,3.363,0,0,1-16.516-18.348Zm6.289,4.922a6.044,6.044,0,0,0,.191-1.5,7.128,7.128,0,0,0-.164-1.449h4.484v2.953ZM9.68-17.992v-.3H14.82v-2.434H1.395v2.434H6.617v.3a8.244,8.244,0,0,1-6.07,7.766L2.16-7.875A9.983,9.983,0,0,0,8.2-13.4,9.547,9.547,0,0,0,14-8.312l1.531-2.352C11.648-11.949,9.68-14.957,9.68-17.992Zm10.637-4.293H17.281v14.9h3.035v-6.18h3.445v-2.543H20.316Zm0,16.051H3.855V-3.8H17.281V2.434h3.035Zm25.4-16.023H42.684v6.535H38.309v2.461h4.375v9.051h3.035ZM46.348-.52H32.539V-5.8H29.5V1.941H46.348ZM34.1-17.336v-.684h5.113V-20.48H25.867v2.461h5.141v.656a8.3,8.3,0,0,1-6.043,7.82l1.559,2.461a10.017,10.017,0,0,0,6.07-5.687,9.663,9.663,0,0,0,5.8,5.168l1.531-2.434C36.094-11.293,34.1-14.355,34.1-17.336Z" transform="translate(1085 5055)"/>
          <path id="패스_3302" data-name="패스 3302" d="M-56.709-4.883c-3.8.01-6.25,1.221-6.25,3.32,0,2.051,2.451,3.281,6.25,3.281,3.838,0,6.26-1.23,6.27-3.281C-50.449-3.662-52.871-4.873-56.709-4.883Zm-7.91-1.27H-48.6V-7.91H-56.26v-3.2h-2.148v3.2h-6.211Zm1.836-7.207h10.059a15.524,15.524,0,0,1-.469,4.238l2.148.2a16.007,16.007,0,0,0,.488-4.687v-1.465H-62.783Zm2.012,11.8c-.02-1.074,1.514-1.68,4.063-1.68s4.1.605,4.121,1.68c-.02,1.035-1.562,1.6-4.121,1.6S-60.791-.527-60.771-1.562Zm29.492-6.25H-47.373v1.758h6.953V-4.58c-3.2.205-5.078,1.309-5.078,3.135,0,2.031,2.295,3.164,6.152,3.164,3.8,0,6.1-1.133,6.113-3.164-.01-1.826-1.885-2.92-5.039-3.125V-6.055h6.992Zm-15.312-2.52.742,1.719c3.2-.332,5.547-1.611,6.5-3.4.957,1.787,3.33,3.066,6.543,3.4l.762-1.719c-3.32-.3-5.42-1.611-5.771-3.066h5.088v-1.738H-45.908V-13.4h5.039C-41.23-11.953-43.35-10.635-46.592-10.332Zm3.3,8.887c-.01-.977,1.377-1.494,3.945-1.5,2.529.01,3.926.527,3.945,1.5-.02.977-1.416,1.514-3.945,1.5C-41.914.068-43.3-.469-43.291-1.445Zm27.363-13.379h-8.516V-7.48h8.516ZM-23.389.02l.742,1.66c2.881-.312,5.078-1.406,6.162-2.891,1.074,1.465,3.242,2.588,6.1,2.891L-9.639.02c-3.379-.342-5.508-1.836-5.7-3.2H-10.3V-4.824h-5.1V-6.367h-2.187v1.543h-5.078v1.641h5.029C-17.832-1.777-20-.273-23.389.02Zm1.094-9.2v-3.926h4.219V-9.18Zm9.473,3.32h2.148V-15.918h-2.148ZM3.389-12.852v-.215H7.1V-14.8H-2.607v1.738H1.2v.215A6.015,6.015,0,0,1-3.174-7.285l1.113,1.68A7.179,7.179,0,0,0,2.324-9.59,7.024,7.024,0,0,0,6.592-5.937l1.113-1.68A5.652,5.652,0,0,1,3.389-12.852ZM-.654-2.7H9.209V1.738H11.4V-4.453H-.654ZM9.209-5.273H11.4V-15.918H9.209ZM20.654-11.68v-2.812H18.447v2.813c-.01,3.408-1.729,6.777-4.668,8.047l1.328,1.816A8.937,8.937,0,0,0,19.58-7.334a8.608,8.608,0,0,0,4.336,5.107l1.289-1.738C22.344-5.2,20.635-8.437,20.654-11.68Zm5.82,13.438h2.188V-15.918H26.475ZM37.021-15.137c-2.656-.01-4.59,1.494-4.59,3.711,0,2.178,1.934,3.7,4.59,3.691,2.686.01,4.629-1.514,4.629-3.691C41.65-13.643,39.707-15.146,37.021-15.137ZM31.279-6.523l.273,1.8c1.328-.01,2.861-.029,4.492-.1V1.191h2.188V-4.951a41.432,41.432,0,0,0,4.648-.6l-.156-1.6A82.273,82.273,0,0,1,31.279-6.523Zm3.262-4.9c-.01-1.221,1.035-1.973,2.48-1.953,1.5-.02,2.559.732,2.559,1.953,0,1.182-1.055,1.924-2.559,1.914C35.576-9.5,34.531-10.244,34.541-11.426ZM43.877,1.719h2.148V-15.9H43.877ZM58.447-14.3H54.7v-1.758H52.529V-14.3H48.584v1.719h9.863ZM49.5-8.75c-.01,1.914,1.67,3.184,4.082,3.184s4.131-1.27,4.141-3.184c-.01-1.9-1.738-3.193-4.141-3.2C51.172-11.943,49.492-10.654,49.5-8.75Zm2.031,0c-.01-.977.8-1.562,2.051-1.562s2.109.586,2.109,1.563-.859,1.6-2.109,1.6S51.523-7.764,51.533-8.75Zm.039,10.273H63.33v-6.27H61.182v1.484H53.74V-4.746H51.572Zm2.168-1.7V-1.621h7.441V-.176Zm4.8-6.641h2.617V-5.43H63.33V-15.918H61.162v3.887h-2.6v1.758h2.6v1.719H58.545ZM-47.734,13.117H-56v8.594h1.406a42.781,42.781,0,0,0,8.105-.469l-.234-1.719a36.5,36.5,0,0,1-7.109.488V18.273h5.742V16.535h-5.742V14.895h6.094ZM-54.2,29.523h11.406v-6.27H-54.2Zm2.148-1.758V24.953h7.109v2.813Zm7.09-5.332h2.168V18.1h2.461V16.3h-2.461V12.082h-2.168ZM-32.773,17.1V15.617h3.867v-1.8h-9.961v1.8h3.887V17.1a8.588,8.588,0,0,1-4.531,7.578l1.25,1.7a9.031,9.031,0,0,0,4.424-5.43,8.4,8.4,0,0,0,4.424,5l1.191-1.719A7.808,7.808,0,0,1-32.773,17.1Zm5.84,12.637h2.188V12.082h-2.187ZM-20,23.332a1.528,1.528,0,0,0,1.5-1.523A1.53,1.53,0,0,0-20,20.3a1.521,1.521,0,0,0-1.523,1.5A1.519,1.519,0,0,0-20,23.332Zm9.883-8.73v-1.68h-2.246V14.6a6,6,0,0,1-4.316,5.7l1.094,1.7a7.177,7.177,0,0,0,4.365-4.043,7.037,7.037,0,0,0,4.287,3.75l1.074-1.719A5.633,5.633,0,0,1-10.117,14.6Zm-3.926,10.586H-4.18v4.551h2.188V23.449H-14.043Zm9.863-2.539h2.188V12.082H-4.18ZM15.371,12.082H13.2v2.344H9.648V12.863H7.5V15.09H3.555V12.863H1.387v7.773H9.648V19.289H13.2V21.2h2.168ZM3.555,18.918V16.75H7.5v2.168Zm.176,4.707H13.2v1.23H3.75v4.668H15.938V27.8H5.918V26.457h9.453V21.926H3.73Zm5.918-6V16.066H13.2v1.563Zm10.371,5.7A1.514,1.514,0,1,0,18.5,21.809,1.528,1.528,0,0,0,20.02,23.332Zm18.5-11.25h-2.07V19H34.453V12.414H32.461V28.84h1.992V20.734h1.992v9h2.07ZM23.867,25.617h1.191a32.135,32.135,0,0,0,6.445-.508l-.156-1.777a29.33,29.33,0,0,1-5.293.449V15.93h4.414V14.172h-6.6ZM56.7,20.461H40.605V22.18H56.7ZM42.266,15.91c0,2.139,2.5,3.418,6.367,3.418S54.99,18.049,55,15.91c-.01-2.109-2.49-3.418-6.367-3.418S42.266,13.8,42.266,15.91Zm.215,10.625c0,2.061,2.295,3.213,6.152,3.2,3.8.01,6.1-1.143,6.113-3.2-.01-2.07-2.314-3.213-6.113-3.2C44.775,23.322,42.48,24.465,42.48,26.535ZM44.531,15.91c-.02-1.123,1.523-1.719,4.1-1.719s4.121.6,4.121,1.719-1.543,1.729-4.121,1.719C46.055,17.639,44.512,17.043,44.531,15.91Zm.156,10.625c-.01-1.035,1.377-1.562,3.945-1.562,2.529,0,3.926.527,3.945,1.563-.02,1.006-1.416,1.533-3.945,1.523C46.064,28.068,44.678,27.541,44.688,26.535Z" transform="translate(1085 5096)"/>
        </g>
        <g id="그룹_15395" data-name="그룹 15395" transform="translate(-110)">
          <circle id="타원_121" data-name="타원 121" cx="106" cy="106" r="106" transform="translate(1479 4975)" fill="#e9e9e9"/>
          <path id="패스_3300" data-name="패스 3300" d="M-57.031-15.566c-3.867,0-6.367,1.289-6.367,3.438,0,2.109,2.5,3.379,6.367,3.359,3.906.02,6.348-1.25,6.367-3.359C-50.684-14.277-53.125-15.566-57.031-15.566Zm0,1.7c2.578,0,4.121.605,4.121,1.738,0,1.074-1.543,1.66-4.121,1.68-2.578-.02-4.121-.605-4.1-1.68C-61.152-13.262-59.609-13.867-57.031-13.867Zm6.113,9.453H-63.164V1.523h12.246ZM-61.016-2.7h7.988V-.234h-7.988Zm12.051-4.883H-65.059V-5.82h16.094Zm7.773-5.82v-1.68h-2.246v1.68a6.012,6.012,0,0,1-4.316,5.7L-46.66-6a7.245,7.245,0,0,0,4.375-4.043,6.97,6.97,0,0,0,4.277,3.75l1.074-1.719A5.633,5.633,0,0,1-41.191-13.4Zm8.125,8.848H-45.117v1.738h9.863V1.738h2.188Zm0-11.367h-2.187V-5.352h2.188ZM-14.395-8.75H-30.488v1.719h6.934V-5.7h-5.039v1.641h10.059V-2.93H-28.574V1.582h12.656V-.078H-26.445V-1.367h10.039V-5.7h-4.98V-7.031h6.992Zm-2.07-6.621H-28.457v5.508h11.992Zm-9.863,1.7h7.7v2.109h-7.7Zm31.8-2.246H3.3v12.91H5.469V-8.945H7.93v-1.8H5.469Zm.7,15.547H-3.672V-4.355H-5.84V1.387H6.172ZM-3.5-14.746a4.493,4.493,0,0,0-4.766,4.453A4.5,4.5,0,0,0-3.5-5.859,4.524,4.524,0,0,0,1.27-10.293,4.516,4.516,0,0,0-3.5-14.746Zm0,1.895A2.492,2.492,0,0,1-.859-10.293,2.483,2.483,0,0,1-3.5-7.773a2.473,2.473,0,0,1-2.637-2.52A2.481,2.481,0,0,1-3.5-12.852ZM23.613-15.9H21.445v4.668H18.32v1.758h3.125v6.465h2.168ZM24.063-.371H14.2v-3.77H12.031V1.387H24.063Zm-8.75-12.012v-.488h3.652v-1.758H9.434v1.758h3.672v.469A5.927,5.927,0,0,1,8.789-6.816L9.9-5.059a7.155,7.155,0,0,0,4.336-4.062A6.9,6.9,0,0,0,18.379-5.43l1.094-1.738A5.622,5.622,0,0,1,15.313-12.383Zm20.664-2.227h-9v1.8h6.875A26.922,26.922,0,0,1,33.4-8.555l2.148.2a29.162,29.162,0,0,0,.43-5.2Zm-4.453,4.023H29.375v3.594c-1.24.02-2.412.029-3.457.039l.2,1.738a66.246,66.246,0,0,0,10.938-.742L36.934-7.52a53.162,53.162,0,0,1-5.41.449ZM40.2-15.918H37.969V-2.7H40.2v-5.9H42.48V-10.41H40.2ZM40.762-.371H30.742v-3.5H28.555V1.387H40.762ZM58.105-15.918H55.957V1.758h2.148Zm-5.43,1.543h-8.32v1.758h6.113v3.145H44.375v7.051h1.543a48.5,48.5,0,0,0,8.809-.625l-.2-1.777A46.858,46.858,0,0,1,46.6-4.2V-7.754h6.074ZM64.121-1.387h-2.48L60.625,4.082H62.48Zm-112,14.25c-2.656-.02-4.59,1.5-4.59,3.711,0,2.168,1.934,3.711,4.59,3.691,2.676.02,4.629-1.523,4.629-3.691C-43.252,14.367-45.205,12.844-47.881,12.863Zm0,1.758c1.5-.02,2.559.742,2.559,1.953,0,1.191-1.055,1.914-2.559,1.914-1.445,0-2.5-.723-2.48-1.914C-50.381,15.363-49.326,14.6-47.881,14.621Zm9-2.52h-2.148V29.719h2.148Zm-14.746,9.375.273,1.8c1.328-.02,2.861-.029,4.492-.1v6.016h2.188V23.039a39.262,39.262,0,0,0,4.648-.586l-.156-1.6A82.35,82.35,0,0,1-53.623,21.477Zm22.773-6.113V13.176h-2.09v2.188A5.84,5.84,0,0,1-36.514,20.6l1.172,1.66a6.471,6.471,0,0,0,3.477-3.633,5.907,5.907,0,0,0,3.3,3.105l1.152-1.66A5,5,0,0,1-30.85,15.363Zm9.59-3.262h-2.07v4.453h-1.758V12.434h-2.031v9.941h2.031V18.332h1.758v4.59h2.07Zm-5.957,11.113c-3.73,0-6.055,1.211-6.055,3.242s2.324,3.262,6.055,3.262c3.691,0,6.035-1.23,6.055-3.262C-21.182,24.426-23.525,23.215-27.217,23.215Zm0,1.641c2.422,0,3.867.566,3.867,1.6,0,1.055-1.445,1.6-3.867,1.6-2.441,0-3.887-.547-3.887-1.6C-31.1,25.422-29.658,24.855-27.217,24.855Zm14.395-9.961V13.02H-14.99V14.7a6.1,6.1,0,0,1-4.277,5.859l1.172,1.7A7.061,7.061,0,0,0-13.857,18.2,6.672,6.672,0,0,0-9.834,21.77l1.172-1.7A5.482,5.482,0,0,1-12.822,14.895Zm7.676-2.812H-7.314V22.648h2.168V18.176h2.461v-1.8H-5.146Zm-5.742,10.957c-3.691-.02-5.977,1.23-5.977,3.32,0,2.129,2.285,3.359,5.977,3.359,3.652,0,5.9-1.23,5.918-3.359C-4.99,24.27-7.236,23.02-10.889,23.039Zm0,1.7c2.422,0,3.77.586,3.77,1.621,0,1.094-1.348,1.641-3.77,1.641s-3.809-.547-3.809-1.641C-14.7,25.324-13.311,24.738-10.889,24.738ZM5.967,14H-1.143V25.578H.049a36.137,36.137,0,0,0,6.543-.41l-.176-1.777a36.113,36.113,0,0,1-5.488.371V20.324H5.654v-1.7H.928V15.734H5.967Zm7.48-1.914h-2.09v6.934H9.541V12.395H7.49V28.879H9.541V20.773h1.816v8.965h2.09Zm21.582,0H32.861v4.2H29.814v1.777h3.047v4.277h2.168Zm0,11.016H23.291v6.426H35.029Zm-9.57,1.719H32.9v2.949H25.459Zm1.27-9.824v-.156h3.652V13.078H20.85v1.758h3.672v.137a5.967,5.967,0,0,1-4.316,5.605l1.113,1.7a7.067,7.067,0,0,0,4.336-4,6.932,6.932,0,0,0,4.141,3.672l1.094-1.719A5.68,5.68,0,0,1,26.729,14.992ZM46.67,13.156H38.6v1.758h5.742c-.4,2.578-2.744,4.639-6.7,5.723l.879,1.7C43.662,20.891,46.65,17.707,46.67,13.156ZM52.314,12.1H50.146v4.316h-3.4V18.2h3.4v3.848h2.168Zm0,10.645H40.693V29.5H52.314Zm-9.492,1.719h7.344v3.32H42.822Z" transform="translate(1585 5096)"/>
          <path id="패스_3301" data-name="패스 3301" d="M-10.582-20.781H-21.875v2.461h8.039c-.561,3.609-3.842,6.494-9.379,8.012l1.23,2.379C-14.793-9.953-10.609-14.41-10.582-20.781Zm7.9-1.477H-5.715v6.043h-4.758v2.488h4.758V-8.34H-2.68Zm0,14.9h-16.27V2.105H-2.68ZM-15.969-4.949H-5.687V-.3H-15.969Zm26-13.809v-2.352H6.891v2.352A8.417,8.417,0,0,1,.848-10.773L2.379-8.395A10.144,10.144,0,0,0,8.5-14.055,9.758,9.758,0,0,0,14.492-8.8L16-11.211C12.059-12.441,10.035-15.5,10.035-18.758ZM21.41-6.371H4.539v2.434H18.348V2.434H21.41Zm0-15.914H18.348V-7.492H21.41Z" transform="translate(1585 5055)"/>
        </g>
        <g id="그룹_15400" data-name="그룹 15400">
          <circle id="타원_125" data-name="타원 125" cx="106" cy="106" r="106" transform="translate(229 4975)" fill="#e9e9e9"/>
          <path id="패스_3283" data-name="패스 3283" d="M-76.826-15.117H-88.994v1.738h10a21.69,21.69,0,0,1-.391,4.414h-11.6v1.758h6.953v2.754h-5.312v1.738h10.391V1.738h2.168V-4.453h-5.078V-7.207h7.012V-8.965H-77.2a24.009,24.009,0,0,0,.371-4.8Zm16.953-.8h-2.168V1.7h2.168V-7.207h2.617V-9.023h-2.617Zm-4.668,1.836h-8.3v1.8h6.113c-.449,4.014-2.773,7.021-7.07,9.16l1.23,1.68C-66.689-4.336-64.541-8.887-64.541-14.082ZM-49.756-10.9v-1.484h3.867v-1.8H-55.85v1.8h3.887V-10.9A8.54,8.54,0,0,1-56.494-3.32l1.25,1.7a9.045,9.045,0,0,0,4.434-5.43,8.326,8.326,0,0,0,4.414,5l1.191-1.719A7.808,7.808,0,0,1-49.756-10.9Zm8.027-5.02h-2.187V1.738h2.188Zm16.934,8.027H-35.01v-4.98h10.078v-1.738H-37.178v8.438h5v4.043h-6.953V-.352H-23V-2.129h-7.031V-6.172h5.234ZM-5.752-6.738h-6.992V-8.047h5.2v-1.66h-10.1v-1.25h9.531v-1.6h-9.531V-13.77h9.961v-1.68H-19.814v7.4h4.9v1.309h-6.973V-5.02H-5.752Zm-8.066,2.7c-3.945,0-6.152,1.035-6.152,2.871,0,1.895,2.207,2.891,6.152,2.891,3.887,0,6.094-1,6.113-2.891C-7.725-3.008-9.932-4.043-13.818-4.043Zm0,1.621c2.617,0,3.926.41,3.945,1.25C-9.893-.312-11.2.1-13.818.1c-2.656,0-3.984-.41-3.984-1.27C-17.8-2.012-16.475-2.422-13.818-2.422ZM10.146-15.9H7.959V-3.008h2.188ZM10.635-.371H.654V-4.238H-1.533V1.387H10.635ZM2.021-13.2v-1.719H-.225V-13.2A6.292,6.292,0,0,1-4.541-7.168l1.133,1.719A7.367,7.367,0,0,0,.928-9.668,7,7,0,0,0,5.146-5.762L6.26-7.48A5.946,5.946,0,0,1,2.021-13.2ZM16.162-1.387h-2.48L12.666,4.082h1.855ZM39.111-6.68H22.979v1.7H39.111ZM37.08-3.633H24.795v1.738h10.1V1.738H37.08Zm.234-6.016h-10.1v-1.309h9.531v-1.621H27.217v-1.211h9.961v-1.7H25.049v7.5H37.314Zm12.188-4.8v-.9H47.217v.9c0,2.227-2.48,4.473-6.211,4.961l.859,1.758a8.884,8.884,0,0,0,6.5-3.926,8.831,8.831,0,0,0,6.523,3.926l.859-1.758C51.982-9.98,49.5-12.227,49.5-14.453ZM56.4-6.211H40.3v1.8h6.934V1.738h2.148V-4.414H56.4Zm10.176-8.672H58.311v8.594h1.406a43.613,43.613,0,0,0,8.105-.469l-.234-1.719a37.22,37.22,0,0,1-7.109.488V-9.727h5.742v-1.738H60.479v-1.641h6.094ZM71.514-4.746H60.107v6.27H71.514Zm-9.258,1.7h7.109V-.234H62.256Zm9.258-12.871H69.346V-5.566h2.168V-9.9h2.461v-1.8H71.514Zm10.02,5.02v-1.484H85.4v-1.8H75.439v1.8h3.887V-10.9A8.54,8.54,0,0,1,74.795-3.32l1.25,1.7a9.045,9.045,0,0,0,4.434-5.43,8.326,8.326,0,0,0,4.414,5L86.084-3.77A7.808,7.808,0,0,1,81.533-10.9Zm8.027-5.02H87.373V1.738h2.188ZM-49.375,13.176h-8.516V20.52h8.516Zm-6.367,1.719h4.219V18.82h-4.219Zm11.621-2.812H-46.27V22.141h2.148Zm.371,11.094h-5.1V21.633h-2.187v1.543h-5.078v1.641h5.02c-.2,1.406-2.363,2.91-5.742,3.2l.742,1.66c2.881-.312,5.068-1.406,6.172-2.891,1.064,1.465,3.232,2.6,6.094,2.891l.742-1.66c-3.379-.332-5.5-1.836-5.7-3.2h5.039Zm13.3-6.855V13.508h-2.168V16.32c-.02,3.262-1.641,6.641-4.473,7.988l1.328,1.738a8.9,8.9,0,0,0,4.238-5.41,8.544,8.544,0,0,0,4.043,5.078l1.328-1.738C-28.887,22.668-30.469,19.465-30.449,16.32Zm7.52-4.238H-25.1V29.738h2.168V20.852h2.715V19H-22.93Zm18.145,0H-6.973V29.758h2.188ZM-14.3,13.371c-2.676,0-4.609,2.422-4.609,6.23,0,3.848,1.934,6.25,4.609,6.25,2.656,0,4.59-2.4,4.609-6.25C-9.707,15.793-11.641,13.371-14.3,13.371Zm0,1.953c1.484,0,2.5,1.582,2.5,4.277,0,2.715-1.016,4.3-2.5,4.3-1.5,0-2.52-1.582-2.52-4.3C-16.816,16.906-15.8,15.324-14.3,15.324Zm26.914-3.242H10.469V18.41H6.875V13.449H4.746v4.395H.664V13.449H-1.523V25.48h8.4V20.188h3.594v9.57h2.148ZM.664,23.742v-4.2H4.746v4.2ZM33.77,12.082H31.6v12.91H33.77V19.055H36.23v-1.8H33.77Zm.7,15.547H24.629V23.645H22.461v5.742H34.473ZM24.8,13.254a4.454,4.454,0,1,0,0,8.887,4.454,4.454,0,1,0,0-8.887Zm0,1.895a2.541,2.541,0,1,1,0,5.078,2.541,2.541,0,1,1,0-5.078ZM51.914,12.1H49.746V16.77H46.621v1.758h3.125v6.465h2.168Zm.449,15.527H42.5v-3.77H40.332v5.527H52.363Zm-8.75-12.012v-.488h3.652V13.371H37.734v1.758h3.672V15.6a5.927,5.927,0,0,1-4.316,5.586L38.2,22.941a7.155,7.155,0,0,0,4.336-4.062A6.9,6.9,0,0,0,46.68,22.57l1.094-1.738A5.622,5.622,0,0,1,43.613,15.617Zm14.238,11h-2.48l-1.016,5.469h1.855ZM-34.6,40.434c-3.867,0-6.367,1.289-6.367,3.438,0,2.109,2.5,3.379,6.367,3.359,3.906.02,6.348-1.25,6.367-3.359C-28.252,41.723-30.693,40.434-34.6,40.434Zm0,1.7c2.578,0,4.121.605,4.121,1.738,0,1.074-1.543,1.66-4.121,1.68-2.578-.02-4.121-.605-4.1-1.68C-38.721,42.738-37.178,42.133-34.6,42.133Zm6.113,9.453H-40.732v5.938h12.246Zm-10.1,1.719H-30.6v2.461h-7.988Zm12.051-4.883H-42.627V50.18h16.094Zm17.52-5.586h-2.4V40.082h-2.168v11.27h2.168V48.4h2.4V46.625h-2.4V44.613h2.4Zm-8.105,8.672c-3.672,0-5.918,1.152-5.9,3.105-.02,1.934,2.227,3.105,5.9,3.105,3.613,0,5.9-1.172,5.9-3.105C-11.221,52.66-13.506,51.508-17.119,51.508Zm0,1.66c2.383,0,3.73.469,3.73,1.445,0,.938-1.348,1.465-3.73,1.465-2.422,0-3.77-.527-3.75-1.465C-20.889,53.637-19.541,53.168-17.119,53.168Zm2.266-11.289h-4.141V39.965h-2.168v1.914h-4.16v1.7h10.469Zm-5.234,2.4c-2.578,0-4.336,1.27-4.336,3.164s1.758,3.145,4.336,3.145c2.559,0,4.3-1.25,4.316-3.145C-15.791,45.551-17.529,44.281-20.088,44.281Zm0,1.6c1.348,0,2.246.586,2.246,1.563,0,.957-.9,1.5-2.246,1.5s-2.227-.547-2.227-1.5C-22.314,46.469-21.436,45.883-20.088,45.883ZM-1.377,44.32V41.508H-3.584V44.32c0,3.4-1.719,6.777-4.668,8.047l1.328,1.816a8.9,8.9,0,0,0,4.473-5.527,8.6,8.6,0,0,0,4.336,5.117l1.289-1.738C.3,50.8-1.4,47.563-1.377,44.32Zm8.008-4.238H4.443V57.758H6.631ZM18.35,42.5V41.2h-2.3V42.5c-.02,2.715-2.676,5.449-6.328,6.113l.957,1.816a9.434,9.434,0,0,0,6.543-4.785,9.237,9.237,0,0,0,6.523,4.785l.977-1.816C21.025,47.973,18.35,45.238,18.35,42.5ZM25.361,53.7H9.229v1.8H25.361Zm8.613-12.52H27.256v8.652h1.172a33.078,33.078,0,0,0,6.445-.449l-.234-1.7a29.062,29.062,0,0,1-5.293.41V46.273h3.965v-1.68H29.346v-1.66h4.629Zm7.637-1.094h-2.07V50.648h2.07Zm-3.477.293h-2.07V44.4H34.072v1.758h1.992v4.355h2.07Zm3.477,11.016H29.7v6.133H41.611Zm-9.746,1.719h7.6v2.656h-7.6Z" transform="translate(335 5085)"/>
          <path id="패스_3284" data-name="패스 3284" d="M-26.879-22.258h-3.035v4.184h-4.977a12.978,12.978,0,0,0,.219-2.461H-46.02v2.461h8.039c-.492,3.678-3.568,6.6-9.352,8.176l1.23,2.406c5.387-1.49,8.982-4.238,10.555-8.176h5.633v2.652h-5.879v2.461h5.879V-7.82h3.035ZM-35.055-7.547c-5.059,0-8.395,1.887-8.395,4.922S-40.113,2.3-35.055,2.3c5,0,8.34-1.887,8.34-4.922S-30.051-7.547-35.055-7.547Zm0,2.379c3.254,0,5.3.9,5.3,2.543,0,1.613-2.051,2.516-5.3,2.516-3.336,0-5.359-.9-5.359-2.516C-40.414-4.266-38.391-5.168-35.055-5.168ZM-1.941-18.977h-8.7v-2.98h-3.008v2.98h-8.723v2.461H-1.941ZM-.793-2.68h-9.844V-5.742C-6.426-6.07-3.828-7.779-3.828-10.5c0-2.98-3.227-4.758-8.312-4.758-5.168,0-8.367,1.777-8.34,4.758-.027,2.734,2.557,4.443,6.836,4.785V-2.68h-9.734V-.219H-.793Zm-11.348-10.2c3.309.027,5.2.82,5.2,2.379,0,1.586-1.887,2.379-5.2,2.406-3.363-.027-5.25-.82-5.223-2.406C-17.391-12.059-15.5-12.852-12.141-12.879ZM23.352-9.434H13.563v-1.832h7.273V-13.59H6.7v-1.75H20.043v-2.242H6.7v-1.7H20.645v-2.352H3.664v10.363h6.863v1.832H.766v2.406H23.352ZM12.059-5.66c-5.523,0-8.613,1.449-8.613,4.02,0,2.652,3.09,4.047,8.613,4.047,5.441,0,8.531-1.395,8.559-4.047C20.59-4.211,17.5-5.66,12.059-5.66Zm0,2.27c3.664,0,5.5.574,5.523,1.75C17.555-.437,15.723.137,12.059.137,8.34.137,6.48-.437,6.48-1.641,6.48-2.816,8.34-3.391,12.059-3.391ZM45.609-22.258H42.547V-4.211h3.063ZM46.293-.52H32.32V-5.934H29.258V1.941H46.293ZM34.234-18.484v-2.406H31.09v2.406a8.809,8.809,0,0,1-6.043,8.449l1.586,2.406a10.314,10.314,0,0,0,6.07-5.906,9.8,9.8,0,0,0,5.906,5.469l1.559-2.406A8.325,8.325,0,0,1,34.234-18.484Z" transform="translate(335 5044)"/>
        </g>
        <g id="그룹_15398" data-name="그룹 15398" transform="translate(-44)">
          <circle id="타원_126" data-name="타원 126" cx="106" cy="106" r="106" transform="translate(729 4975)" fill="#e9e9e9"/>
          <path id="패스_3281" data-name="패스 3281" d="M-21.748-15.312H-34.912v1.758h2.422v3.242h-2.324v1.7h5.391v1.758h-6.934v1.738h16.094V-6.855h-6.973V-8.613h5.391v-1.7H-24.17v-3.242h2.422ZM-22.236-3.73H-34.58v1.738H-24.4v3.73h2.168Zm-8.086-6.582v-3.242h3.965v3.242Zm14-4.824h-2.148v7.7h8.418v-7.7H-12.2v2.246h-4.121Zm0,5.977v-2.09H-12.2v2.09Zm11.172-6.758H-7.314v9.043h2.168v-3.711h2.461v-1.758H-5.146Zm0,9.746H-16.689v1.7h9.375v1.348H-16.67V1.582H-4.6V-.137h-9.922V-1.543h9.375ZM14.307-8.75H-1.787v1.719H5.146V-5.7H.107v1.641H10.166V-2.93H.127V1.582H12.783V-.078H2.256V-1.367H12.295V-5.7H7.314V-7.031h6.992Zm-2.07-6.621H.244v5.508H12.236Zm-9.863,1.7h7.7v2.109h-7.7ZM36.357-7.734H20.244v1.777H36.357ZM34.5-10.859H24.385v-2.734H34.4v-1.758H22.217v6.23H34.5Zm-6.23,6.133c-3.848-.02-6.152,1.152-6.152,3.2,0,2.07,2.3,3.242,6.152,3.242,3.809,0,6.094-1.172,6.113-3.242C34.365-3.574,32.08-4.746,28.271-4.727Zm0,1.66c2.52,0,3.926.547,3.945,1.543C32.2-.488,30.791.039,28.271.039c-2.578,0-3.965-.527-3.945-1.562C24.307-2.52,25.693-3.066,28.271-3.066Zm-78.525,15.93c-2.656-.02-4.59,1.5-4.59,3.711,0,2.168,1.934,3.711,4.59,3.691,2.676.02,4.629-1.523,4.629-3.691C-45.625,14.367-47.578,12.844-50.254,12.863Zm0,1.758c1.5-.02,2.559.742,2.559,1.953,0,1.191-1.055,1.914-2.559,1.914-1.445,0-2.5-.723-2.48-1.914C-52.754,15.363-51.7,14.6-50.254,14.621Zm9-2.52H-43.4V29.719h2.148ZM-56,21.477l.273,1.8c1.328-.02,2.861-.029,4.492-.1v6.016h2.188V23.039a39.262,39.262,0,0,0,4.648-.586l-.156-1.6A82.35,82.35,0,0,1-56,21.477Zm32.051-9.395h-2.168v5.234h-2.52v1.8h2.52v3.652h2.168Zm0,11.484H-35.684v5.957h11.738Zm-9.57,1.719h7.441v2.48h-7.441Zm5.176-11.562h-4.1V11.945H-34.59v1.777h-4.1V15.48H-28.34Zm-5.176,2.441c-2.441,0-4.18,1.309-4.18,3.164,0,1.914,1.738,3.164,4.18,3.164,2.461,0,4.18-1.25,4.2-3.164C-29.336,17.473-31.055,16.164-33.516,16.164Zm0,1.641c1.27,0,2.109.586,2.109,1.523,0,.977-.84,1.543-2.109,1.543s-2.109-.566-2.109-1.543C-35.625,18.391-34.785,17.8-33.516,17.8ZM-5.352,19.25H-21.445v1.719h6.934V22.3h-5.039v1.641H-9.492V25.07H-19.531v4.512H-6.875v-1.66H-17.4V26.633H-7.363V22.3h-4.98V20.969h6.992Zm-2.07-6.621H-19.414v5.508H-7.422Zm-9.863,1.7h7.7v2.109h-7.7ZM9.57,13.117H1.309v8.594H2.715a43.613,43.613,0,0,0,8.105-.469l-.234-1.719a37.22,37.22,0,0,1-7.109.488V18.273H9.219V16.535H3.477V14.895H9.57Zm4.941,10.137H3.105v6.27H14.512Zm-9.258,1.7h7.109v2.813H5.254Zm9.258-12.871H12.344V22.434h2.168V18.1h2.461V16.3H14.512Zm10.02,5.02V15.617H28.4v-1.8H18.438v1.8h3.887V17.1a8.54,8.54,0,0,1-4.531,7.578l1.25,1.7a9.045,9.045,0,0,0,4.434-5.43,8.326,8.326,0,0,0,4.414,5l1.191-1.719A7.808,7.808,0,0,1,24.531,17.1Zm8.027-5.02H30.371V29.738h2.188Zm16.758,1.094H40.8V20.52h8.516Zm-6.367,1.719h4.219V18.82H42.949ZM54.57,12.082H52.422V22.141H54.57Zm.371,11.094h-5.1V21.633H47.656v1.543H42.578v1.641H47.6c-.2,1.406-2.363,2.91-5.742,3.2l.742,1.66c2.881-.312,5.068-1.406,6.172-2.891,1.064,1.465,3.232,2.6,6.094,2.891l.742-1.66c-3.379-.332-5.5-1.836-5.7-3.2h5.039ZM-55.605,44.32V41.508h-2.207V44.32c0,3.4-1.719,6.777-4.668,8.047l1.328,1.816a8.9,8.9,0,0,0,4.473-5.527,8.6,8.6,0,0,0,4.336,5.117l1.289-1.738C-53.926,50.8-55.625,47.563-55.605,44.32Zm8.008-4.238h-2.187V57.758H-47.6Zm17.383,0h-2.168v2.832H-35.9v1.738h3.516v4.473h2.168Zm0,9.8H-41.836v1.7h9.473v1.25h-9.453v4.688h12.168V55.8H-39.687V54.457h9.473Zm-8.379-7.812V40.668h-2.187v1.406a5.624,5.624,0,0,1-4.316,5.41l1.133,1.738a6.892,6.892,0,0,0,4.316-3.887,6.722,6.722,0,0,0,4.063,3.5l1.152-1.68A5.387,5.387,0,0,1-38.594,42.074Zm26.973,5.176H-27.715v1.719h6.934V50.3H-25.82v1.641h10.059V53.07H-25.8v4.512h12.656v-1.66H-23.672V54.633h10.039V50.3h-4.98V48.969h6.992Zm-2.07-6.621H-25.684v5.508h11.992Zm-9.863,1.7h7.7v2.109h-7.7Zm31.8-2.246H6.074v12.91H8.242V47.055H10.7v-1.8H8.242Zm.7,15.547H-.9V51.645H-3.066v5.742H8.945ZM-.723,41.254a4.493,4.493,0,0,0-4.766,4.453A4.5,4.5,0,0,0-.723,50.141a4.524,4.524,0,0,0,4.766-4.434A4.516,4.516,0,0,0-.723,41.254Zm0,1.895a2.492,2.492,0,0,1,2.637,2.559,2.483,2.483,0,0,1-2.637,2.52,2.473,2.473,0,0,1-2.637-2.52A2.481,2.481,0,0,1-.723,43.148ZM26.387,40.1H24.219V44.77H21.094v1.758h3.125v6.465h2.168Zm.449,15.527H16.973v-3.77H14.8v5.527H26.836Zm-8.75-12.012v-.488h3.652V41.371H12.207v1.758h3.672V43.6a5.927,5.927,0,0,1-4.316,5.586l1.113,1.758a7.155,7.155,0,0,0,4.336-4.062,6.9,6.9,0,0,0,4.141,3.691l1.094-1.738A5.622,5.622,0,0,1,18.086,43.617Zm25.586-3.535H41.5v4.2H38.457v1.777H41.5v4.277h2.168Zm0,11.016H31.934v6.426H43.672ZM34.1,52.816h7.441v2.949H34.1Zm1.27-9.824v-.156h3.652V41.078H29.492v1.758h3.672v.137a5.967,5.967,0,0,1-4.316,5.605l1.113,1.7a7.067,7.067,0,0,0,4.336-4,6.932,6.932,0,0,0,4.141,3.672l1.094-1.719A5.68,5.68,0,0,1,35.371,42.992Zm19.941-1.836H47.246v1.758h5.742c-.4,2.578-2.744,4.639-6.7,5.723l.879,1.7C52.3,48.891,55.293,45.707,55.313,41.156ZM60.957,40.1H58.789v4.316h-3.4V46.2h3.4v3.848h2.168Zm0,10.645H49.336V57.5H60.957Zm-9.492,1.719h7.344v3.32H51.465Z" transform="translate(835 5081)"/>
          <path id="패스_3297" data-name="패스 3297" d="M-10.582-20.781H-21.875v2.461h8.039c-.561,3.609-3.842,6.494-9.379,8.012l1.23,2.379C-14.793-9.953-10.609-14.41-10.582-20.781Zm7.9-1.477H-5.715v6.043h-4.758v2.488h4.758V-8.34H-2.68Zm0,14.9h-16.27V2.105H-2.68ZM-15.969-4.949H-5.687V-.3H-15.969Zm39.32-5H.82V-7.52H23.352ZM20.59-5.387H3.309V-2.98H17.555V2.434H20.59ZM13.563-22.23H10.555v2.324H3.035v2.379h7.3C9.98-15.422,7.055-13.7,1.887-13.344l.957,2.324c4.389-.369,7.67-1.75,9.215-3.91,1.545,2.16,4.813,3.541,9.215,3.91l.957-2.324c-5.223-.355-8.121-2.078-8.449-4.184h7.355v-2.379H13.563Z" transform="translate(835 5040)"/>
        </g>
        <g id="그룹_15399" data-name="그룹 15399" transform="translate(-22)">
          <circle id="타원_113" data-name="타원 113" cx="106" cy="106" r="106" transform="translate(479 4975)" fill="#e9e9e9"/>
          <path id="패스_3282" data-name="패스 3282" d="M-43.955-15.9h-2.168v2.988h-3.555a9.27,9.27,0,0,0,.156-1.758h-8.105v1.758h5.742c-.352,2.627-2.549,4.717-6.68,5.84l.879,1.719c3.848-1.064,6.416-3.027,7.539-5.84h4.023V-9.3h-4.2v1.758h4.2v1.953h2.168Zm-5.84,10.508c-3.613,0-6,1.348-6,3.516s2.383,3.516,6,3.516c3.574,0,5.957-1.348,5.957-3.516S-46.221-5.391-49.795-5.391Zm0,1.7c2.324,0,3.789.645,3.789,1.816,0,1.152-1.465,1.8-3.789,1.8-2.383,0-3.828-.645-3.828-1.8C-53.623-3.047-52.178-3.691-49.795-3.691Zm23.652-9.863h-6.211v-2.129H-34.5v2.129h-6.23V-11.8h14.59Zm.82,11.641h-7.031V-4.1c3.008-.234,4.863-1.455,4.863-3.4,0-2.129-2.3-3.4-5.937-3.4-3.691,0-5.977,1.27-5.957,3.4-.02,1.953,1.826,3.174,4.883,3.418v2.168h-6.953V-.156h16.133ZM-33.428-9.2c2.363.02,3.711.586,3.711,1.7,0,1.133-1.348,1.7-3.711,1.719-2.4-.02-3.75-.586-3.73-1.719C-37.178-8.613-35.83-9.18-33.428-9.2Zm24.492-6.719h-2.07V1.738h2.07Zm-3.652.43h-2.07v4.316h-2.051a18.816,18.816,0,0,0,.176-2.6h-6.875v1.758h4.727c-.322,3.555-2,6.318-5.664,8.477l1.27,1.543a12.331,12.331,0,0,0,5.977-7.4h2.441v2.617h-2.754V-5h2.754V.9h2.07Zm16.777.977H.029v-1.5H-2.139v1.5H-6.26v1.6H4.189ZM-1.025-12.4c-2.637-.02-4.375,1.016-4.355,2.656-.02,1.377,1.24,2.3,3.242,2.539v1.035c-1.66.059-3.262.068-4.668.059l.293,1.68a68.465,68.465,0,0,0,11.094-.7L4.424-6.621c-1.406.176-2.9.3-4.395.371v-.937c1.992-.244,3.281-1.172,3.281-2.559C3.311-11.387,1.553-12.422-1.025-12.4Zm0,1.465c1.348-.02,2.246.41,2.266,1.191-.02.723-.918,1.152-2.266,1.133-1.387.02-2.285-.41-2.266-1.133C-3.311-10.527-2.412-10.957-1.025-10.937Zm8.867-4.941H5.654V-4H7.842Zm0,12.6H-4.307v1.7H5.654v3.32H7.842Zm16.5-11.172v-.9H22.061v.9c0,2.227-2.48,4.473-6.211,4.961l.859,1.758a8.884,8.884,0,0,0,6.5-3.926,8.831,8.831,0,0,0,6.523,3.926L30.6-9.492C26.826-9.98,24.346-12.227,24.346-14.453ZM31.24-6.211H15.146v1.8H22.08V1.738h2.148V-4.414H31.24Zm15.9-9.687H44.951v9.785h2.188Zm-5.664.8H33.33v1.758h6v1.68H33.369v5.215h1.5a50.73,50.73,0,0,0,8.594-.527L43.193-8.73a46.9,46.9,0,0,1-7.7.508V-10h5.977ZM37.607-5.332H35.439V1.523h11.7V-5.332H44.971v1.719H37.607Zm0,5.1v-1.7h7.363v1.7Zm19-4.434a1.534,1.534,0,0,0,1.5-1.523,1.53,1.53,0,0,0-1.5-1.5,1.521,1.521,0,0,0-1.523,1.5A1.525,1.525,0,0,0,56.611-4.668ZM-58.35,16.32V13.508h-2.168V16.32c-.02,3.262-1.641,6.641-4.473,7.988l1.328,1.738a8.9,8.9,0,0,0,4.238-5.41,8.544,8.544,0,0,0,4.043,5.078l1.328-1.738C-56.787,22.668-58.369,19.465-58.35,16.32Zm7.52-4.238H-53V29.738h2.168V20.852h2.715V19H-50.83Zm18.242.02h-2.168V16.77h-3.125v1.758h3.125v6.465h2.168Zm.449,15.527H-42v-3.77H-44.17v5.527h12.031Zm-8.75-12.012v-.488h3.652V13.371h-9.531v1.758H-43.1V15.6a5.927,5.927,0,0,1-4.316,5.586l1.113,1.758a7.155,7.155,0,0,0,4.336-4.062,6.9,6.9,0,0,0,4.141,3.691l1.094-1.738A5.622,5.622,0,0,1-40.889,15.617Zm29.473-3.535h-2.168v12.91h2.168V19.055h2.461v-1.8h-2.461Zm.7,15.547h-9.844V23.645h-2.168v5.742h12.012Zm-9.668-14.375a4.493,4.493,0,0,0-4.766,4.453,4.5,4.5,0,0,0,4.766,4.434,4.524,4.524,0,0,0,4.766-4.434A4.516,4.516,0,0,0-20.381,13.254Zm0,1.895a2.492,2.492,0,0,1,2.637,2.559,2.483,2.483,0,0,1-2.637,2.52,2.473,2.473,0,0,1-2.637-2.52A2.481,2.481,0,0,1-20.381,15.148ZM6.729,12.1H4.561V16.77H1.436v1.758H4.561v6.465H6.729Zm.449,15.527H-2.686v-3.77H-4.854v5.527H7.178Zm-8.75-12.012v-.488H2.08V13.371H-7.451v1.758h3.672V15.6A5.927,5.927,0,0,1-8.1,21.184l1.113,1.758a7.155,7.155,0,0,0,4.336-4.062A6.9,6.9,0,0,0,1.494,22.57l1.094-1.738A5.622,5.622,0,0,1-1.572,15.617Zm24.785-3.535H21.045V22.473h2.168V18.2H25.6V16.379H23.213Zm0,11.094h-11.8v1.465h9.629v1h-9.59v3.945H23.838V28.117H13.623V26.984h9.59ZM9.072,20.7l.234,1.523a67.13,67.13,0,0,0,11-.664l-.176-1.367c-1.416.186-2.93.313-4.434.371v-.8c1.953-.215,3.145-1.016,3.145-2.3,0-1.426-1.66-2.266-4.258-2.266s-4.258.84-4.258,2.266c0,1.309,1.221,2.109,3.2,2.3v.879C11.924,20.7,10.4,20.7,9.072,20.7Zm10.586-7.422H15.693V11.945H13.525v1.328h-4v1.484H19.658ZM14.58,16.555c1.367.02,2.188.313,2.188.9,0,.625-.82.977-2.187.977s-2.187-.352-2.168-.977C12.393,16.867,13.213,16.574,14.58,16.555Zm28.047,3.984H35.635v-1.68h5.137V17.141H30.654V14.582h10.02v-1.7H28.486v5.977h5.02v1.68H26.514v1.738H42.627Zm-8.086,2.754c-3.848,0-6.152,1.152-6.152,3.223,0,2.051,2.3,3.223,6.152,3.223,3.809,0,6.094-1.172,6.113-3.223C40.635,24.445,38.35,23.293,34.541,23.293Zm0,1.66c2.52,0,3.926.547,3.945,1.563-.02,1.016-1.426,1.543-3.945,1.543-2.578,0-3.965-.527-3.945-1.543C30.576,25.5,31.963,24.953,34.541,24.953ZM57.959,13.176H49.443V20.52h8.516Zm-6.367,1.719h4.219V18.82H51.592Zm11.621-2.812H61.064V22.141h2.148Zm.371,11.094h-5.1V21.633H56.3v1.543H51.221v1.641h5.02c-.2,1.406-2.363,2.91-5.742,3.2l.742,1.66c2.881-.312,5.068-1.406,6.172-2.891,1.064,1.465,3.232,2.6,6.094,2.891l.742-1.66c-3.379-.332-5.5-1.836-5.7-3.2h5.039Zm-98.74,26.848H-51.289v1.8h6.953v5.918h2.148V51.82h7.031Zm-8.105-9.316c-3.77.02-6.348,1.543-6.328,3.965-.02,2.4,2.559,3.906,6.328,3.906,3.75,0,6.367-1.5,6.367-3.906C-36.895,42.25-39.512,40.727-43.262,40.707Zm0,1.758c2.5,0,4.121.82,4.121,2.207,0,1.367-1.621,2.188-4.121,2.188s-4.121-.82-4.1-2.187C-47.383,43.285-45.762,42.465-43.262,42.465Zm12.031-1.6h-2.148v7.7h8.418v-7.7h-2.148v2.246H-31.23Zm0,5.977V44.75h4.121v2.09Zm11.172-6.758h-2.168v9.043h2.168V45.414H-17.6V43.656h-2.461Zm0,9.746H-31.6v1.7h9.375v1.348h-9.355v4.707h12.07V55.863h-9.922V54.457h9.375Zm9.609-6.934V41.02h-2.168V42.7a6.1,6.1,0,0,1-4.277,5.859l1.172,1.7A7.061,7.061,0,0,0-11.484,46.2,6.672,6.672,0,0,0-7.461,49.77l1.172-1.7A5.482,5.482,0,0,1-10.449,42.895Zm7.676-2.812H-4.941V50.648h2.168V46.176H-.312v-1.8H-2.773ZM-8.516,51.039c-3.691-.02-5.977,1.23-5.977,3.32,0,2.129,2.285,3.359,5.977,3.359,3.652,0,5.9-1.23,5.918-3.359C-2.617,52.27-4.863,51.02-8.516,51.039Zm0,1.7c2.422,0,3.77.586,3.77,1.621,0,1.094-1.348,1.641-3.77,1.641s-3.809-.547-3.809-1.641C-12.324,53.324-10.937,52.738-8.516,52.738ZM14.57,40.1H12.4V52.035H14.57V47h2.383V45.219H14.57ZM8.73,52.191c-3.809,0-5.957,1-5.957,2.793s2.148,2.754,5.957,2.754c3.75,0,5.918-.957,5.938-2.754C14.648,53.188,12.48,52.191,8.73,52.191Zm0,1.6c2.5-.02,3.73.391,3.75,1.191-.02.742-1.25,1.152-3.75,1.152-2.539,0-3.789-.41-3.789-1.152C4.941,54.184,6.191,53.773,8.73,53.793ZM.43,49.77l.234,1.68a67.183,67.183,0,0,0,11-.7l-.176-1.5c-1.416.2-2.93.322-4.434.391V48.539C9,48.314,10.2,47.426,10.2,46.1c0-1.562-1.66-2.52-4.258-2.52S1.68,44.535,1.68,46.1c0,1.338,1.221,2.236,3.2,2.461v1.152C3.291,49.77,1.768,49.77.43,49.77Zm10.586-8.32H7.051v-1.5H4.883v1.5h-4v1.6H11.016ZM5.938,45.023c1.367,0,2.188.41,2.188,1.074,0,.7-.82,1.094-2.187,1.094S3.75,46.8,3.77,46.1C3.75,45.434,4.57,45.023,5.938,45.023Zm27.129-4.941H31V47H29V40.414H27.012V56.84H29V48.734H31v9h2.07Zm-8.047,2.09h-6.6V53.617h1.191a32.076,32.076,0,0,0,6.445-.508L25.9,51.332a29.179,29.179,0,0,1-5.293.449V43.93H25.02Zm24.824-2.09H47.656V57.758h2.188ZM38.262,41.527H36.094V53.6h8.594V41.527H42.539v4.414H38.262Zm0,10.293v-4.18h4.277v4.18Z" transform="translate(585 5081)"/>
          <path id="패스_3285" data-name="패스 3285" d="M-14.383-17.91v-2.844h-3.062v2.816A8.669,8.669,0,0,1-23.461-9.57l1.613,2.406A10.181,10.181,0,0,0-15.859-13.1a9.717,9.717,0,0,0,5.605,5.359l1.668-2.379A8.183,8.183,0,0,1-14.383-17.91Zm11.7-4.348H-5.715v5.441h-4.922v2.488h4.922V-3.91H-2.68ZM-2.133-.52H-15.887V-5.906h-3.09V1.941H-2.133ZM4.676-21.191H1.668v10.773H13.453V-21.191H10.445v3.145H4.676Zm0,8.367V-15.75h5.77v2.926Zm15.641-9.461H17.281v12.66h3.035v-5.2h3.445v-2.461H20.316Zm0,13.645H4.156v2.379H17.281v1.887H4.184v6.59h16.9V-.191H7.191V-2.16H20.316Z" transform="translate(585 5040)"/>
        </g>
      </g>
    </g>
    <g id="사각형_1262" data-name="사각형 1262" transform="translate(260 4337)" fill="none" stroke="#e9e9e9" stroke-width="1">
      <rect width="1400" height="889" stroke="none"/>
      <rect x="0.5" y="0.5" width="1399" height="888" fill="none"/>
    </g>
  </g>
</svg>
