<svg xmlns="http://www.w3.org/2000/svg" xmlns:xlink="http://www.w3.org/1999/xlink" width="109.223" height="38.855" viewBox="0 0 109.223 38.855">
  <defs>
    <clipPath id="clip-path">
      <rect id="사각형_1" data-name="사각형 1" width="109.223" height="38.855" fill="#eb008c"/>
    </clipPath>
  </defs>
  <g id="그룹_2377" data-name="그룹 2377" transform="translate(0 -2)">
    <g id="그룹_1" data-name="그룹 1" transform="translate(0 2)" clip-path="url(#clip-path)">
      <path id="패스_1" data-name="패스 1" d="M39.62,11.367a13.212,13.212,0,0,0-9.453,3.987,13.731,13.731,0,0,0-.006,19.153,13.21,13.21,0,0,0,9.45,3.993h.006a13.2,13.2,0,0,0,9.447-3.988A13.728,13.728,0,0,0,49.07,15.36a13.205,13.205,0,0,0-9.449-3.993m6.112,19.877a8.523,8.523,0,0,1-12.237,0,9.062,9.062,0,0,1,0-12.618,8.519,8.519,0,0,1,12.236,0,9.062,9.062,0,0,1,0,12.618M13.814,15.414a9.019,9.019,0,0,1,6.921,3.252A2.333,2.333,0,1,0,24.3,15.658a13.655,13.655,0,0,0-20.272-.784A14.214,14.214,0,0,0,4.026,34.7a13.672,13.672,0,0,0,9.781,4.134h0A13.7,13.7,0,0,0,24.3,33.93a2.333,2.333,0,1,0-3.567-3.009,8.991,8.991,0,0,1-13.371.515,9.545,9.545,0,0,1,0-13.294,8.981,8.981,0,0,1,6.45-2.728M109.165,2.846a2.334,2.334,0,1,0-4.554-1.024,46.654,46.654,0,0,1-4.532,11.519,48.6,48.6,0,0,1-5.272,7.805l-8.211-9a2.334,2.334,0,0,0-3.45,3.145L91.6,24.555c-.308.29-.611.585-.929.863-6.786,5.975-14.038,8.786-19.723,8.769-3.887-.013-6.965-1.241-9.077-3.524a7.5,7.5,0,0,1-1.8-3.548L77,27.12s.978-.053,1.668-.156a3.482,3.482,0,0,0,1.205-.375,3.2,3.2,0,0,0,1.548-1.813,4.372,4.372,0,0,0,.264-1.53,4.3,4.3,0,0,0-.048-.667A13.294,13.294,0,0,0,68.549,11.373H68.48A13.462,13.462,0,0,0,55.147,24.826v.042a13.157,13.157,0,0,0,3.292,8.96A16.584,16.584,0,0,0,70.9,38.854h.048c7.179-.014,15.331-3.378,22.8-9.93.341-.3.663-.613.992-.922l8.919,9.782a2.334,2.334,0,0,0,3.449-3.145L97.974,24.619a52.884,52.884,0,0,0,6.2-9.041,51.25,51.25,0,0,0,4.99-12.732M68.523,16.041h.039a8.613,8.613,0,0,1,8.284,6.411l-16.7-.005a8.767,8.767,0,0,1,8.375-6.406" transform="translate(0 0)" fill="#eb008c"/>
    </g>
  </g>
</svg>
