<svg xmlns="http://www.w3.org/2000/svg" xmlns:xlink="http://www.w3.org/1999/xlink" width="25.299" height="20.924" viewBox="0 0 25.299 20.924">
  <defs>
    <clipPath id="clip-path">
      <rect id="사각형_340050" data-name="사각형 340050" width="25.299" height="20.924"/>
    </clipPath>
  </defs>
  <g id="그룹_465599" data-name="그룹 465599" transform="translate(0 0)">
    <g id="그룹_465598" data-name="그룹 465598" transform="translate(0 0)" clip-path="url(#clip-path)">
      <path id="패스_70244" data-name="패스 70244" d="M52.265,32.781a1.021,1.021,0,0,0-.166,1.828.989.989,0,1,0,.166-1.828" transform="translate(-38.246 -24.253)"/>
      <path id="패스_70245" data-name="패스 70245" d="M74.972,32.653a1.024,1.024,0,0,0-.116,1.807.992.992,0,1,0,.116-1.807" transform="translate(-55.116 -24.141)"/>
      <path id="패스_70246" data-name="패스 70246" d="M17.982,32.807a1.02,1.02,0,0,0-.057,1.823.99.99,0,1,0,.057-1.823" transform="translate(-12.888 -24.253)"/>
      <path id="패스_70247" data-name="패스 70247" d="M25.076,3.5A5.009,5.009,0,0,0,20.421,0Q12.65,0,4.878,0A5.007,5.007,0,0,0,.007,4.667C0,7.3,0,9.935.007,12.571A5,5,0,0,0,4.6,17.295c2.018.048,4.037-.008,6.056.028.466,1,.967,1.975,1.447,2.966.133.247.229.564.541.636.317-.06.414-.381.547-.628.487-.994.979-1.983,1.461-2.98,2.016-.022,4.034.022,6.051-.022a5,5,0,0,0,4.587-4.719c.01-2.1,0-4.2.008-6.3a8.88,8.88,0,0,0-.221-2.77M7.192,11.368a1.887,1.887,0,0,1-2.639-.126c0,.115.006.344.009.458-.509,0-1.02.01-1.529-.011.023-2.16-.026-4.322.027-6.48.5.015,1,.009,1.5.015-.018.806.009,1.615-.019,2.421A2,2,0,0,1,7.3,7.671a2.587,2.587,0,0,1-.106,3.7m3.532.332q-.752.007-1.5,0c-.023-1.37.029-2.742-.029-4.111A1.029,1.029,0,0,0,8.5,6.554c-.009-.5,0-.994,0-1.493a2.234,2.234,0,0,1,1.3.4,2.551,2.551,0,0,1,.922,2.129c-.006,1.371,0,2.741,0,4.11m5.329-.4c-1.273.964-3.53.65-4.148-.937A2.347,2.347,0,0,1,13.438,7.23a2.937,2.937,0,0,1,2.8.576,2.367,2.367,0,0,1-.181,3.5m6.6.24a2.57,2.57,0,0,1-.92,2.071,2.98,2.98,0,0,1-1.965.44c0-.466,0-.931,0-1.4a1.551,1.551,0,0,0,1.048-.262,1.705,1.705,0,0,0,.34-1.162,2.072,2.072,0,0,1-2.787.018,2.547,2.547,0,0,1,.3-3.781,1.871,1.871,0,0,1,2.471.208c0-.1,0-.312,0-.416.5,0,1.011,0,1.516,0,0,1.427,0,2.854,0,4.282" transform="translate(0 0)"/>
    </g>
  </g>
</svg>
