<svg xmlns="http://www.w3.org/2000/svg" width="51.506" height="186.113" viewBox="0 0 51.506 186.113">
  <g id="그룹_465376" data-name="그룹 465376" transform="translate(51.506) rotate(90)">
    <rect id="사각형_662" data-name="사각형 662" width="51.461" height="2.715" transform="translate(13.962 0) rotate(90)"/>
    <rect id="사각형_663" data-name="사각형 663" width="51.46" height="5.431" transform="translate(171.631 0.046) rotate(90)"/>
    <rect id="사각형_664" data-name="사각형 664" width="51.46" height="6.336" transform="translate(130.918 0.046) rotate(90)"/>
    <rect id="사각형_665" data-name="사각형 665" width="51.46" height="5.431" transform="translate(186.113 0.046) rotate(90)"/>
    <rect id="사각형_666" data-name="사각형 666" width="51.46" height="4.526" transform="translate(143.769 0.046) rotate(90)"/>
    <rect id="사각형_667" data-name="사각형 667" width="51.46" height="1.81" transform="translate(163.484 0.046) rotate(90)"/>
    <rect id="사각형_668" data-name="사각형 668" width="51.46" height="3.621" transform="translate(121.42 0.046) rotate(90)"/>
    <rect id="사각형_669" data-name="사각형 669" width="51.46" height="0.905" transform="translate(158.959 0.046) rotate(90)"/>
    <rect id="사각형_670" data-name="사각형 670" width="51.46" height="1.81" transform="translate(117.947 0.046) rotate(90)"/>
    <rect id="사각형_672" data-name="사각형 672" width="51.46" height="2.715" transform="translate(149.761 0.046) rotate(90)"/>
    <rect id="사각형_673" data-name="사각형 673" width="51.46" height="4.526" transform="translate(178.872 0.046) rotate(90)"/>
    <rect id="사각형_674" data-name="사각형 674" width="51.46" height="1.81" transform="translate(135.994 0.046) rotate(90)"/>
    <rect id="사각형_675" data-name="사각형 675" width="51.46" height="2.715" transform="translate(155.774 0.046) rotate(90)"/>
    <rect id="사각형_676" data-name="사각형 676" width="51.46" height="1.81" transform="translate(111.072 0.046) rotate(90)"/>
    <rect id="사각형_679" data-name="사각형 679" width="51.46" height="7.241" transform="translate(84.584 0.046) rotate(90)"/>
    <rect id="사각형_680" data-name="사각형 680" width="51.46" height="4.526" transform="translate(64.748 0.046) rotate(90)"/>
    <rect id="사각형_681" data-name="사각형 681" width="51.46" height="1.81" transform="translate(41.454 0.046) rotate(90)"/>
    <rect id="사각형_682" data-name="사각형 682" width="51.46" height="2.715" transform="translate(5.429 0.046) rotate(90)"/>
    <rect id="사각형_683" data-name="사각형 683" width="51.46" height="3.621" transform="translate(38.085 0.046) rotate(90)"/>
    <rect id="사각형_684" data-name="사각형 684" width="51.46" height="1.81" transform="translate(1.81 0.046) rotate(90)"/>
    <rect id="사각형_685" data-name="사각형 685" width="51.46" height="0.905" transform="translate(86.981 0.046) rotate(90)"/>
    <rect id="사각형_686" data-name="사각형 686" width="51.46" height="1.81" transform="translate(13.279 0.046) rotate(90)"/>
    <rect id="사각형_687" data-name="사각형 687" width="51.46" height="2.715" transform="translate(45.784 0.046) rotate(90)"/>
    <rect id="사각형_688" data-name="사각형 688" width="51.46" height="3.621" transform="translate(71.592 0.046) rotate(90)"/>
    <rect id="사각형_689" data-name="사각형 689" width="51.46" height="3.621" transform="translate(26.858 0.046) rotate(90)"/>
    <rect id="사각형_690" data-name="사각형 690" width="51.46" height="3.621" transform="translate(51.831 0.046) rotate(90)"/>
    <rect id="사각형_691" data-name="사각형 691" width="51.46" height="2.715" transform="translate(55.234 0.046) rotate(90)"/>
    <rect id="사각형_692" data-name="사각형 692" width="51.46" height="0.905" transform="translate(10.565 0.046) rotate(90)"/>
    <rect id="사각형_693" data-name="사각형 693" width="51.46" height="0.905" transform="translate(33.194 0.046) rotate(90)"/>
    <rect id="사각형_694" data-name="사각형 694" width="51.46" height="0.905" transform="translate(74.086 0.046) rotate(90)"/>
    <rect id="사각형_695" data-name="사각형 695" width="51.46" height="6.336" transform="translate(106.02 0.046) rotate(90)"/>
    <rect id="사각형_696" data-name="사각형 696" width="51.46" height="0.905" transform="translate(96.439 0.046) rotate(90)"/>
    <rect id="사각형_697" data-name="사각형 697" width="51.46" transform="translate(22.333 0.046) rotate(90)"/>
    <rect id="사각형_698" data-name="사각형 698" width="51.46" height="1.81" transform="translate(93.021 0.046) rotate(90)"/>
    <rect id="사각형_699" data-name="사각형 699" width="51.46" height="0.905" transform="translate(18.713 0.046) rotate(90)"/>
  </g>
</svg>
