<svg id="그룹_2484" data-name="그룹 2484" xmlns="http://www.w3.org/2000/svg" width="17.863" height="17.863" viewBox="0 0 17.863 17.863">
  <path id="패스_146" data-name="패스 146" d="M24.763,181.76H17.212a5.156,5.156,0,0,0-5.156,5.156v7.551a5.156,5.156,0,0,0,5.156,5.156h7.551a5.156,5.156,0,0,0,5.156-5.156v-7.551a5.156,5.156,0,0,0-5.156-5.156m3.511,12.84a3.423,3.423,0,0,1-3.423,3.422H17.124A3.423,3.423,0,0,1,13.7,194.6v-7.728a3.423,3.423,0,0,1,3.423-3.423h7.728a3.422,3.422,0,0,1,3.423,3.423Z" transform="translate(-12.056 -181.76)"/>
  <path id="패스_147" data-name="패스 147" d="M30.278,195.488a4.635,4.635,0,1,0,4.635,4.635,4.635,4.635,0,0,0-4.635-4.635m0,7.639a3,3,0,1,1,3-3,3,3,0,0,1-3,3" transform="translate(-21.347 -191.147)"/>
  <path id="패스_148" data-name="패스 148" d="M53.113,191.516a1.08,1.08,0,1,0,1.08,1.08,1.08,1.08,0,0,0-1.08-1.08" transform="translate(-39.392 -188.431)"/>
</svg>
