<svg xmlns="http://www.w3.org/2000/svg" width="14.625" height="20" viewBox="0 0 14.625 20">
  <g id="그룹_464710" data-name="그룹 464710" transform="translate(0.679 -0.5)">
    <path id="패스_112" data-name="패스 112" d="M14.611,28.1l-1.234-3.977v-3.78a5.315,5.315,0,0,0-5.4-5.227,5.315,5.315,0,0,0-5.4,5.227v3.78L1.344,28.1H14.611Z" transform="translate(-1.344 -12.031)" fill="none" stroke="#000" stroke-miterlimit="10" stroke-width="1"/>
    <path id="패스_113" data-name="패스 113" d="M26.447,108.38a2.732,2.732,0,0,0,.074.634,2.928,2.928,0,0,0,5.659,0,2.748,2.748,0,0,0,.075-.636" transform="translate(-22.717 -91.191)" fill="none" stroke="#000" stroke-miterlimit="10" stroke-width="1"/>
    <path id="패스_114" data-name="패스 114" d="M38.153,2.843a1.547,1.547,0,0,0,.021-.243,1.653,1.653,0,0,0-3.3,0,1.565,1.565,0,0,0,.021.243" transform="translate(-29.888 0)" fill="none" stroke="#000" stroke-miterlimit="10" stroke-width="1"/>
  </g>
</svg>
