<svg id="그룹_2485" data-name="그룹 2485" xmlns="http://www.w3.org/2000/svg" width="22.153" height="15.507" viewBox="0 0 22.153 15.507">
  <path id="패스_149" data-name="패스 149" d="M21.691,2.422A2.775,2.775,0,0,0,19.733.463C18,0,11.078,0,11.078,0S4.15,0,2.422.463A2.775,2.775,0,0,0,.464,2.422,28.837,28.837,0,0,0,0,7.754a28.835,28.835,0,0,0,.463,5.332,2.775,2.775,0,0,0,1.959,1.959c1.728.463,8.655.463,8.655.463s6.927,0,8.655-.463a2.775,2.775,0,0,0,1.959-1.959,28.835,28.835,0,0,0,.463-5.332,28.837,28.837,0,0,0-.463-5.332" transform="translate(-0.001 0)"/>
  <path id="패스_150" data-name="패스 150" d="M50.375,31.834l5.755-3.323-5.755-3.323Z" transform="translate(-41.514 -20.758)" fill="#fff"/>
</svg>
