<svg id="그룹_2" data-name="그룹 2" xmlns="http://www.w3.org/2000/svg" xmlns:xlink="http://www.w3.org/1999/xlink" width="96" height="34.151" viewBox="0 0 96 34.151">
  <defs>
    <clipPath id="clip-path">
      <rect id="사각형_1" data-name="사각형 1" width="96" height="34.151" fill="#fff"/>
    </clipPath>
  </defs>
  <g id="그룹_1" data-name="그룹 1" clip-path="url(#clip-path)">
    <path id="패스_1" data-name="패스 1" d="M34.824,9.991a11.612,11.612,0,0,0-8.309,3.5,12.069,12.069,0,0,0,0,16.834,11.611,11.611,0,0,0,8.306,3.51h.005a11.6,11.6,0,0,0,8.3-3.5,12.066,12.066,0,0,0,0-16.834,11.606,11.606,0,0,0-8.305-3.509M40.2,27.462a7.491,7.491,0,0,1-10.755,0,7.965,7.965,0,0,1,0-11.09,7.488,7.488,0,0,1,10.755,0,7.965,7.965,0,0,1,0,11.09M12.141,13.548a7.927,7.927,0,0,1,6.083,2.858,2.051,2.051,0,1,0,3.137-2.643,12,12,0,0,0-17.818-.689A12.493,12.493,0,0,0,3.538,30.5a12.017,12.017,0,0,0,8.6,3.634h0a12.039,12.039,0,0,0,9.218-4.313,2.051,2.051,0,1,0-3.135-2.645,7.9,7.9,0,0,1-11.752.453,8.389,8.389,0,0,1,0-11.685,7.894,7.894,0,0,1,5.669-2.4M95.95,2.5a2.051,2.051,0,1,0-4-.9,41.006,41.006,0,0,1-3.983,10.124,42.714,42.714,0,0,1-4.634,6.86l-7.217-7.915a2.051,2.051,0,0,0-3.032,2.764l7.428,8.147c-.27.255-.537.514-.816.758-5.965,5.251-12.338,7.722-17.335,7.707a10.491,10.491,0,0,1-7.978-3.1A6.591,6.591,0,0,1,52.8,23.832l14.88,0s.859-.047,1.466-.137a3.06,3.06,0,0,0,1.059-.33,2.816,2.816,0,0,0,1.361-1.594,3.843,3.843,0,0,0,.232-1.345,3.784,3.784,0,0,0-.042-.586A11.685,11.685,0,0,0,60.25,10H60.19A11.832,11.832,0,0,0,48.47,21.821v.037a11.564,11.564,0,0,0,2.894,7.875,14.576,14.576,0,0,0,10.949,4.418h.042c6.31-.012,13.475-2.969,20.044-8.728.3-.263.583-.539.872-.81l7.839,8.6a2.051,2.051,0,0,0,3.031-2.764l-8.03-8.807a46.481,46.481,0,0,0,5.451-7.947A45.045,45.045,0,0,0,95.95,2.5M60.228,14.1h.035a7.57,7.57,0,0,1,7.281,5.635l-14.677,0a7.705,7.705,0,0,1,7.361-5.63" transform="translate(0 0)" fill="#fff"/>
  </g>
</svg>
